<svg xmlns="http://www.w3.org/2000/svg" xmlns:xlink="http://www.w3.org/1999/xlink" width="200" zoomAndPan="magnify" viewBox="0 0 150 149.999998" height="200" preserveAspectRatio="xMidYMid meet" version="1.0"><defs><g/><clipPath id="925fac3a6f"><path d="M 19.328125 59.578125 L 95.078125 59.578125 L 95.078125 77.578125 L 19.328125 77.578125 Z M 19.328125 59.578125 " clip-rule="nonzero"/></clipPath></defs><g clip-path="url(#925fac3a6f)"><path fill="#000000" d="M 94.828125 71.828125 C 94.871094 71.78125 94.914062 71.738281 94.964844 71.703125 C 94.996094 71.652344 95.035156 71.605469 95.082031 71.5625 C 95.070312 71.507812 95.058594 71.449219 95.046875 71.390625 C 94.996094 71.402344 94.941406 71.410156 94.882812 71.410156 C 94.84375 71.410156 94.804688 71.40625 94.769531 71.402344 C 94.769531 71.410156 94.769531 71.421875 94.769531 71.433594 C 93.859375 72.210938 92.855469 72.851562 91.78125 73.390625 C 91.042969 73.765625 90.273438 74.058594 89.488281 74.308594 C 88.257812 74.691406 87.011719 75.007812 85.734375 75.210938 C 85.191406 75.296875 84.648438 75.339844 84.101562 75.394531 C 82.835938 75.519531 81.566406 75.488281 80.304688 75.347656 C 78.773438 75.171875 77.269531 74.8125 75.8125 74.292969 C 73.972656 73.632812 72.21875 72.796875 70.546875 71.785156 L 70.855469 71.636719 C 71.097656 71.503906 71.339844 71.382812 71.578125 71.25 C 72.714844 70.625 73.789062 69.910156 74.761719 69.046875 C 75.558594 68.339844 76.28125 67.566406 76.886719 66.683594 C 77.246094 66.164062 77.554688 65.617188 77.792969 65.027344 C 78.003906 64.511719 78.121094 63.972656 78.132812 63.414062 C 78.144531 62.867188 78.023438 62.351562 77.761719 61.875 C 77.402344 61.222656 76.847656 60.78125 76.136719 60.605469 C 75.164062 60.367188 74.203125 60.4375 73.285156 60.886719 C 72.554688 61.242188 71.910156 61.710938 71.402344 62.359375 C 71.363281 62.402344 71.328125 62.449219 71.285156 62.492188 C 71.234375 62.554688 71.175781 62.554688 71.15625 62.492188 C 71.113281 62.339844 71.074219 62.1875 71.023438 62.039062 C 70.742188 61.21875 70.234375 60.59375 69.464844 60.191406 C 69.222656 60.0625 68.972656 59.964844 68.710938 59.875 C 67.824219 59.578125 66.976562 59.679688 66.167969 60.128906 C 65.347656 60.589844 64.800781 61.292969 64.496094 62.1875 C 64.199219 63.046875 64.152344 63.929688 64.320312 64.820312 C 64.550781 66.066406 65.046875 67.199219 65.773438 68.226562 C 66.160156 68.773438 66.597656 69.277344 67.070312 69.753906 C 67.738281 70.425781 68.460938 71.019531 69.25 71.542969 C 69.347656 71.605469 69.527344 71.738281 69.617188 71.8125 L 69.261719 71.988281 C 68.28125 72.378906 67.273438 72.6875 66.246094 72.925781 C 63.949219 73.457031 61.621094 73.585938 59.273438 73.449219 C 57.695312 73.359375 56.128906 73.132812 54.570312 72.890625 C 54.070312 72.8125 53.570312 72.71875 53.074219 72.621094 C 52.539062 72.519531 52.003906 72.398438 51.46875 72.296875 C 50.933594 72.191406 50.394531 72.089844 49.859375 71.988281 C 49.417969 71.902344 48.976562 71.816406 48.539062 71.726562 C 47.984375 71.613281 47.429688 71.496094 46.875 71.390625 C 46.28125 71.277344 45.6875 71.167969 45.09375 71.0625 C 44.363281 70.933594 43.632812 70.785156 42.902344 70.683594 C 41.472656 70.492188 40.046875 70.25 38.605469 70.125 C 36.859375 69.957031 35.113281 69.769531 33.355469 69.757812 C 32.574219 69.75 31.796875 69.75 31.015625 69.773438 C 29.90625 69.804688 28.804688 69.921875 27.703125 70.097656 C 26.644531 70.273438 25.597656 70.503906 24.585938 70.875 C 23.773438 71.167969 23.003906 71.546875 22.296875 72.054688 C 21.601562 72.546875 21.027344 73.160156 20.570312 73.882812 C 20.199219 74.46875 19.894531 75.089844 19.671875 75.746094 C 19.566406 76.0625 19.476562 76.386719 19.390625 76.714844 C 19.332031 76.9375 19.390625 77.144531 19.539062 77.320312 C 19.707031 77.519531 20.019531 77.566406 20.230469 77.429688 C 20.4375 77.292969 20.523438 77.042969 20.445312 76.808594 C 20.433594 76.769531 20.421875 76.730469 20.402344 76.695312 C 20.257812 76.398438 20.261719 76.085938 20.324219 75.765625 C 20.355469 75.613281 20.386719 75.457031 20.425781 75.304688 C 20.632812 74.507812 20.984375 73.792969 21.523438 73.167969 C 21.992188 72.625 22.546875 72.195312 23.15625 71.835938 C 23.902344 71.394531 24.703125 71.082031 25.535156 70.855469 C 27.386719 70.339844 29.269531 70.074219 31.191406 70.042969 C 31.660156 70.035156 32.128906 70.046875 32.59375 70.035156 C 33.53125 70.007812 34.464844 70.078125 35.402344 70.125 C 37.566406 70.230469 39.707031 70.5625 41.855469 70.835938 C 41.875 70.839844 41.894531 70.84375 41.910156 70.847656 C 42.796875 70.988281 43.683594 71.128906 44.566406 71.28125 C 45.164062 71.382812 45.757812 71.496094 46.351562 71.605469 C 46.753906 71.679688 47.15625 71.765625 47.554688 71.84375 C 48.089844 71.953125 48.625 72.066406 49.160156 72.171875 C 49.695312 72.28125 50.234375 72.375 50.769531 72.480469 C 51.707031 72.667969 52.640625 72.875 53.582031 73.039062 C 54.464844 73.191406 55.347656 73.363281 56.242188 73.453125 C 56.652344 73.492188 57.054688 73.558594 57.460938 73.609375 C 58.605469 73.757812 59.753906 73.800781 60.90625 73.820312 C 61.878906 73.839844 62.851562 73.773438 63.820312 73.660156 C 65.238281 73.496094 66.632812 73.21875 67.992188 72.785156 C 68.597656 72.59375 69.4375 72.285156 70.03125 72.035156 C 70.777344 72.484375 71.535156 72.902344 72.316406 73.285156 C 73.859375 74.042969 75.441406 74.691406 77.097656 75.136719 C 77.855469 75.335938 78.613281 75.523438 79.386719 75.644531 C 80.449219 75.804688 81.523438 75.875 82.699219 75.847656 C 83.472656 75.867188 84.335938 75.777344 85.191406 75.65625 C 86.886719 75.425781 88.542969 74.996094 90.15625 74.40625 C 91.574219 73.886719 92.898438 73.1875 94.136719 72.3125 C 94.375 72.144531 94.601562 71.960938 94.820312 71.777344 Z M 70.074219 71.484375 C 69.972656 71.429688 69.871094 71.371094 69.769531 71.308594 C 68.507812 70.496094 67.414062 69.492188 66.488281 68.296875 C 65.777344 67.386719 65.277344 66.367188 64.976562 65.242188 C 64.820312 64.648438 64.746094 64.042969 64.808594 63.503906 C 64.851562 63.011719 64.910156 62.601562 65.070312 62.210938 C 65.296875 61.648438 65.628906 61.167969 66.105469 60.800781 C 66.800781 60.261719 67.578125 60.113281 68.425781 60.3125 C 68.828125 60.410156 69.203125 60.574219 69.550781 60.804688 C 70.183594 61.226562 70.582031 61.816406 70.730469 62.570312 C 70.800781 62.921875 70.808594 63.277344 70.652344 63.617188 C 70.578125 63.78125 70.527344 63.949219 70.535156 64.132812 C 70.539062 64.1875 70.5625 64.246094 70.585938 64.296875 C 70.613281 64.355469 70.746094 64.386719 70.792969 64.347656 C 70.820312 64.320312 70.855469 64.300781 70.878906 64.273438 C 71.066406 64.019531 71.253906 63.765625 71.433594 63.507812 C 71.535156 63.363281 71.625 63.210938 71.71875 63.0625 C 72.175781 62.34375 72.78125 61.804688 73.507812 61.390625 C 73.921875 61.152344 74.367188 61.019531 74.839844 60.980469 C 75.230469 60.949219 75.617188 60.960938 76.003906 61.050781 C 76.761719 61.222656 77.300781 61.667969 77.578125 62.414062 C 77.800781 63.027344 77.8125 63.652344 77.644531 64.28125 C 77.535156 64.703125 77.375 65.105469 77.171875 65.492188 C 76.800781 66.214844 76.34375 66.878906 75.8125 67.488281 C 74.957031 68.472656 73.980469 69.320312 72.90625 70.046875 C 72.171875 70.542969 71.414062 70.984375 70.621094 71.375 C 70.535156 71.417969 70.3125 71.523438 70.222656 71.558594 C 70.222656 71.558594 70.167969 71.539062 70.074219 71.484375 Z M 70.074219 71.484375 " fill-opacity="1" fill-rule="nonzero"/></g><g fill="#000000" fill-opacity="1"><g transform="translate(84.784376, 69.840924)"><g><path d="M 4.421875 -3.734375 C 5.054688 -2.96875 7.625 -3.226562 8.984375 -3.367188 C 5.867188 1.167969 3.914062 4.023438 6.085938 4.738281 C 7.664062 5.261719 13.160156 4.21875 16.664062 -3.214844 C 16.664062 -3.28125 16.46875 -3.324219 16.429688 -3.242188 C 13.132812 3.40625 8.40625 4.875 6.386719 4.503906 C 4.765625 4.203125 8.035156 -0.453125 10.136719 -3.542969 C 11.691406 -3.902344 13.902344 -3.777344 14.175781 -3.226562 C 14.230469 -3.226562 14.382812 -3.226562 14.410156 -3.226562 C 14.148438 -3.984375 12.101562 -4.121094 10.273438 -3.777344 C 12.445312 -7.058594 14.589844 -11.03125 15.082031 -12.335938 C 12.96875 -11.484375 4.558594 -15.273438 4.273438 -8.914062 C 0.878906 -10.371094 -1.097656 -7.582031 0.316406 -5.273438 L 0.671875 -5.273438 C -0.839844 -7.183594 0.671875 -10.152344 4.246094 -8.722656 C 4.300781 -5.589844 5.496094 -4.273438 6.539062 -4.410156 C 7.527344 -4.546875 8.214844 -6.9375 4.492188 -8.847656 C 4.683594 -14.355469 11.125 -11.867188 14.105469 -11.992188 C 13.253906 -10.316406 11.550781 -7.253906 9.164062 -3.613281 C 7.5 -3.351562 5.109375 -3.324219 4.847656 -3.734375 Z M 6.621094 -4.601562 C 5.839844 -4.421875 4.644531 -5.109375 4.449219 -8.613281 C 7.761719 -6.839844 7.253906 -4.753906 6.621094 -4.601562 Z M 6.621094 -4.601562 "/></g></g></g><g fill="#000000" fill-opacity="1"><g transform="translate(101.16863, 69.840924)"><g><path d="M 16.332031 2.941406 C 13.558594 3.96875 21.664062 -13.914062 16.320312 -12.746094 C 14.203125 -12.238281 12.597656 -8.777344 11.632812 -6.222656 C 12.238281 -10.273438 12.003906 -13.160156 9.339844 -12.914062 C 7.363281 -12.761719 5.398438 -10.808594 4.902344 -8.160156 C 1.839844 -10.21875 -0.617188 -7.84375 0.355469 -5.316406 L 0.699219 -5.246094 C -0.441406 -7.402344 1.59375 -10.042969 4.847656 -7.980469 C 4.3125 -4.890625 5.246094 -3.378906 6.304688 -3.308594 C 7.308594 -3.269531 8.476562 -5.480469 5.164062 -8.035156 C 5.550781 -10.46875 7.402344 -12.625 9.355469 -12.746094 C 11.578125 -12.914062 11.578125 -10.90625 11.042969 -7.679688 C 10.207031 -2.609375 7.402344 4.558594 4.394531 4.589844 C -0.316406 4.644531 -0.535156 -2.84375 4.863281 -3.007812 C 5.082031 -2.707031 5.46875 -3.132812 4.957031 -3.226562 C -0.78125 -3.132812 -0.6875 4.808594 4.339844 4.808594 C 6.839844 4.808594 8.886719 2.210938 10.808594 -3.324219 C 13.433594 -3.667969 15.46875 -3.792969 16.125 -3.914062 C 15.355469 -0.425781 14.273438 3.421875 16.25 3.144531 C 17.636719 2.953125 20.398438 -0.988281 21.976562 -3.226562 C 21.976562 -3.296875 21.785156 -3.308594 21.746094 -3.242188 C 19.574219 -0.21875 17.664062 2.445312 16.332031 2.941406 Z M 16.152344 -12.5 C 19.078125 -13.488281 16.746094 -7.363281 16.167969 -4.105469 C 14.820312 -3.886719 12.746094 -3.792969 10.878906 -3.542969 C 12.855469 -9.355469 14.492188 -11.9375 16.152344 -12.5 Z M 6.429688 -3.488281 C 5.632812 -3.449219 4.628906 -4.339844 5.082031 -7.828125 C 8.023438 -5.480469 7.074219 -3.53125 6.429688 -3.488281 Z M 6.429688 -3.488281 "/></g></g></g><g fill="#000000" fill-opacity="1"><g transform="translate(45.696069, 78.940552)"><g><path d="M 2.96875 -0.421875 L 2.96875 0 L 0.234375 0 L 1 -1.140625 C 1.613281 -2.066406 1.992188 -2.632812 2.140625 -2.84375 L 0.78125 -2.84375 C 0.6875 -2.84375 0.601562 -2.867188 0.53125 -2.921875 C 0.457031 -2.972656 0.421875 -3.039062 0.421875 -3.125 L 0.421875 -3.421875 L 0.828125 -3.421875 L 0.828125 -3.375 C 0.828125 -3.320312 0.832031 -3.289062 0.84375 -3.28125 C 0.863281 -3.269531 0.90625 -3.265625 0.96875 -3.265625 L 2.921875 -3.265625 L 0.984375 -0.421875 Z M 2.96875 -0.421875 "/></g></g></g><g fill="#000000" fill-opacity="1"><g transform="translate(50.073497, 78.940552)"><g><path d="M 2.59375 -3.265625 L 2.59375 -2.84375 L 0.90625 -2.84375 L 0.90625 -1.84375 L 2.40625 -1.84375 L 2.40625 -1.4375 L 0.90625 -1.4375 L 0.90625 -0.421875 L 2.65625 -0.421875 L 2.65625 0 L 0.46875 0 L 0.46875 -3.265625 Z M 2.59375 -3.265625 "/></g></g></g><g fill="#000000" fill-opacity="1"><g transform="translate(54.180186, 78.940552)"><g><path d="M 0.90625 -3.265625 L 0.90625 0 L 0.46875 0 L 0.46875 -3.265625 Z M 0.90625 -3.265625 "/></g></g></g><g fill="#000000" fill-opacity="1"><g transform="translate(56.716593, 78.940552)"><g><path d="M 3.3125 -3.265625 L 3.3125 0.109375 L 3.296875 0.109375 L 0.90625 -2.328125 L 0.90625 0 L 0.46875 0 L 0.46875 -3.359375 L 0.5 -3.359375 L 2.890625 -0.90625 L 2.875 -3.265625 Z M 3.3125 -3.265625 "/></g></g></g><g fill="#000000" fill-opacity="1"><g transform="translate(61.658061, 78.940552)"><g><path d="M 2.1875 -0.859375 L 0.921875 -0.859375 L 0.578125 0 L 0.140625 0 L 1.578125 -3.40625 L 1.59375 -3.40625 L 3.03125 0 L 2.515625 0 Z M 2.03125 -1.234375 L 1.5625 -2.421875 L 1.078125 -1.234375 Z M 2.03125 -1.234375 "/></g></g></g><g fill="#000000" fill-opacity="1"><g transform="translate(65.981344, 78.940552)"><g><path d="M 1.921875 -1.6875 C 2.109375 -1.613281 2.253906 -1.507812 2.359375 -1.375 C 2.472656 -1.25 2.53125 -1.097656 2.53125 -0.921875 C 2.53125 -0.710938 2.476562 -0.535156 2.375 -0.390625 C 2.269531 -0.253906 2.132812 -0.15625 1.96875 -0.09375 C 1.8125 -0.03125 1.632812 0 1.4375 0 L 0.46875 0 L 0.46875 -3.265625 L 1.3125 -3.265625 C 1.644531 -3.265625 1.898438 -3.195312 2.078125 -3.0625 C 2.265625 -2.925781 2.359375 -2.71875 2.359375 -2.4375 C 2.359375 -2.269531 2.320312 -2.117188 2.25 -1.984375 C 2.175781 -1.859375 2.066406 -1.757812 1.921875 -1.6875 Z M 0.90625 -1.84375 L 1.40625 -1.84375 C 1.570312 -1.84375 1.695312 -1.890625 1.78125 -1.984375 C 1.875 -2.078125 1.921875 -2.203125 1.921875 -2.359375 C 1.921875 -2.515625 1.867188 -2.632812 1.765625 -2.71875 C 1.660156 -2.800781 1.515625 -2.84375 1.328125 -2.84375 L 0.90625 -2.84375 Z M 1.421875 -0.40625 C 1.609375 -0.40625 1.765625 -0.445312 1.890625 -0.53125 C 2.015625 -0.613281 2.078125 -0.738281 2.078125 -0.90625 C 2.078125 -1.082031 2.007812 -1.207031 1.875 -1.28125 C 1.738281 -1.363281 1.578125 -1.40625 1.390625 -1.40625 L 0.90625 -1.40625 L 0.90625 -0.40625 Z M 1.421875 -0.40625 "/></g></g></g><g fill="#000000" fill-opacity="1"><g transform="translate(69.934614, 78.940552)"><g/></g></g><g fill="#000000" fill-opacity="1"><g transform="translate(72.52066, 78.940552)"><g><path d="M 2.1875 -0.859375 L 0.921875 -0.859375 L 0.578125 0 L 0.140625 0 L 1.578125 -3.40625 L 1.59375 -3.40625 L 3.03125 0 L 2.515625 0 Z M 2.03125 -1.234375 L 1.5625 -2.421875 L 1.078125 -1.234375 Z M 2.03125 -1.234375 "/></g></g></g><g fill="#000000" fill-opacity="1"><g transform="translate(76.843941, 78.940552)"><g><path d="M 1.921875 -1.6875 C 2.109375 -1.613281 2.253906 -1.507812 2.359375 -1.375 C 2.472656 -1.25 2.53125 -1.097656 2.53125 -0.921875 C 2.53125 -0.710938 2.476562 -0.535156 2.375 -0.390625 C 2.269531 -0.253906 2.132812 -0.15625 1.96875 -0.09375 C 1.8125 -0.03125 1.632812 0 1.4375 0 L 0.46875 0 L 0.46875 -3.265625 L 1.3125 -3.265625 C 1.644531 -3.265625 1.898438 -3.195312 2.078125 -3.0625 C 2.265625 -2.925781 2.359375 -2.71875 2.359375 -2.4375 C 2.359375 -2.269531 2.320312 -2.117188 2.25 -1.984375 C 2.175781 -1.859375 2.066406 -1.757812 1.921875 -1.6875 Z M 0.90625 -1.84375 L 1.40625 -1.84375 C 1.570312 -1.84375 1.695312 -1.890625 1.78125 -1.984375 C 1.875 -2.078125 1.921875 -2.203125 1.921875 -2.359375 C 1.921875 -2.515625 1.867188 -2.632812 1.765625 -2.71875 C 1.660156 -2.800781 1.515625 -2.84375 1.328125 -2.84375 L 0.90625 -2.84375 Z M 1.421875 -0.40625 C 1.609375 -0.40625 1.765625 -0.445312 1.890625 -0.53125 C 2.015625 -0.613281 2.078125 -0.738281 2.078125 -0.90625 C 2.078125 -1.082031 2.007812 -1.207031 1.875 -1.28125 C 1.738281 -1.363281 1.578125 -1.40625 1.390625 -1.40625 L 0.90625 -1.40625 L 0.90625 -0.40625 Z M 1.421875 -0.40625 "/></g></g></g><g fill="#000000" fill-opacity="1"><g transform="translate(80.797211, 78.940552)"><g><path d="M 0.859375 -1.15625 C 0.859375 -1.007812 0.894531 -0.878906 0.96875 -0.765625 C 1.039062 -0.648438 1.132812 -0.554688 1.25 -0.484375 C 1.375 -0.421875 1.503906 -0.390625 1.640625 -0.390625 C 1.796875 -0.390625 1.929688 -0.421875 2.046875 -0.484375 C 2.171875 -0.554688 2.269531 -0.648438 2.34375 -0.765625 C 2.414062 -0.878906 2.453125 -1.007812 2.453125 -1.15625 L 2.453125 -3.265625 L 2.875 -3.265625 L 2.875 -1.140625 C 2.875 -0.910156 2.816406 -0.703125 2.703125 -0.515625 C 2.597656 -0.335938 2.453125 -0.203125 2.265625 -0.109375 C 2.078125 -0.015625 1.867188 0.03125 1.640625 0.03125 C 1.421875 0.03125 1.21875 -0.015625 1.03125 -0.109375 C 0.84375 -0.203125 0.691406 -0.335938 0.578125 -0.515625 C 0.472656 -0.703125 0.421875 -0.910156 0.421875 -1.140625 L 0.421875 -3.265625 L 0.859375 -3.265625 Z M 0.859375 -1.15625 "/></g></g></g><g fill="#000000" fill-opacity="1"><g transform="translate(43.18156, 82.698786)"><g><path d="M 1.34375 -1.671875 C 1.269531 -1.710938 1.191406 -1.742188 1.109375 -1.765625 C 1.023438 -1.785156 0.945312 -1.796875 0.875 -1.796875 C 0.769531 -1.796875 0.679688 -1.769531 0.609375 -1.71875 C 0.546875 -1.675781 0.515625 -1.613281 0.515625 -1.53125 C 0.515625 -1.4375 0.550781 -1.363281 0.625 -1.3125 C 0.707031 -1.257812 0.816406 -1.207031 0.953125 -1.15625 C 1.054688 -1.125 1.144531 -1.082031 1.21875 -1.03125 C 1.289062 -0.988281 1.347656 -0.925781 1.390625 -0.84375 C 1.441406 -0.769531 1.46875 -0.675781 1.46875 -0.5625 C 1.46875 -0.445312 1.441406 -0.34375 1.390625 -0.25 C 1.335938 -0.164062 1.257812 -0.0976562 1.15625 -0.046875 C 1.0625 -0.00390625 0.945312 0.015625 0.8125 0.015625 C 0.6875 0.015625 0.5625 0 0.4375 -0.03125 C 0.320312 -0.0703125 0.222656 -0.125 0.140625 -0.1875 L 0.265625 -0.40625 C 0.328125 -0.351562 0.40625 -0.304688 0.5 -0.265625 C 0.601562 -0.234375 0.695312 -0.21875 0.78125 -0.21875 C 0.882812 -0.21875 0.976562 -0.242188 1.0625 -0.296875 C 1.144531 -0.359375 1.1875 -0.441406 1.1875 -0.546875 C 1.1875 -0.640625 1.148438 -0.710938 1.078125 -0.765625 C 1.015625 -0.828125 0.921875 -0.882812 0.796875 -0.9375 C 0.679688 -0.976562 0.585938 -1.019531 0.515625 -1.0625 C 0.441406 -1.101562 0.375 -1.160156 0.3125 -1.234375 C 0.257812 -1.304688 0.234375 -1.394531 0.234375 -1.5 C 0.234375 -1.65625 0.289062 -1.78125 0.40625 -1.875 C 0.519531 -1.976562 0.664062 -2.035156 0.84375 -2.046875 C 1.0625 -2.046875 1.265625 -1.988281 1.453125 -1.875 Z M 1.34375 -1.671875 "/></g></g></g><g fill="#000000" fill-opacity="1"><g transform="translate(45.545882, 82.698786)"><g><path d="M 0.171875 -1.015625 C 0.171875 -1.203125 0.21875 -1.375 0.3125 -1.53125 C 0.40625 -1.6875 0.53125 -1.8125 0.6875 -1.90625 C 0.84375 -2.007812 1.015625 -2.0625 1.203125 -2.0625 C 1.390625 -2.0625 1.5625 -2.007812 1.71875 -1.90625 C 1.875 -1.8125 2 -1.6875 2.09375 -1.53125 C 2.195312 -1.375 2.25 -1.203125 2.25 -1.015625 C 2.25 -0.828125 2.203125 -0.648438 2.109375 -0.484375 C 2.015625 -0.328125 1.882812 -0.203125 1.71875 -0.109375 C 1.5625 -0.0234375 1.390625 0.015625 1.203125 0.015625 C 1.015625 0.015625 0.835938 -0.0234375 0.671875 -0.109375 C 0.515625 -0.203125 0.390625 -0.328125 0.296875 -0.484375 C 0.210938 -0.648438 0.171875 -0.828125 0.171875 -1.015625 Z M 0.453125 -1.015625 C 0.453125 -0.867188 0.484375 -0.738281 0.546875 -0.625 C 0.617188 -0.507812 0.710938 -0.414062 0.828125 -0.34375 C 0.941406 -0.269531 1.066406 -0.234375 1.203125 -0.234375 C 1.347656 -0.234375 1.476562 -0.269531 1.59375 -0.34375 C 1.707031 -0.414062 1.796875 -0.507812 1.859375 -0.625 C 1.929688 -0.738281 1.96875 -0.867188 1.96875 -1.015625 C 1.96875 -1.148438 1.929688 -1.28125 1.859375 -1.40625 C 1.796875 -1.53125 1.703125 -1.625 1.578125 -1.6875 C 1.460938 -1.757812 1.335938 -1.796875 1.203125 -1.796875 C 1.066406 -1.796875 0.9375 -1.757812 0.8125 -1.6875 C 0.695312 -1.613281 0.609375 -1.515625 0.546875 -1.390625 C 0.484375 -1.273438 0.453125 -1.148438 0.453125 -1.015625 Z M 0.453125 -1.015625 "/></g></g></g><g fill="#000000" fill-opacity="1"><g transform="translate(48.685161, 82.698786)"><g><path d="M 1.5 -2.03125 L 1.5 -1.765625 L 0.5625 -1.765625 L 0.5625 -1.125 L 1.390625 -1.125 L 1.390625 -0.859375 L 0.5625 -0.859375 L 0.5625 0 L 0.296875 0 L 0.296875 -2.03125 Z M 1.5 -2.03125 "/></g></g></g><g fill="#000000" fill-opacity="1"><g transform="translate(51.069209, 82.698786)"><g><path d="M 1.5 -2.03125 L 1.5 -1.765625 L 0.953125 -1.765625 L 0.953125 0 L 0.671875 0 L 0.671875 -1.765625 L 0.140625 -1.765625 L 0.140625 -2.03125 Z M 1.5 -2.03125 "/></g></g></g><g fill="#000000" fill-opacity="1"><g transform="translate(53.433531, 82.698786)"><g><path d="M 1.921875 0.09375 L 1.453125 -1.125 L 0.921875 0.09375 L 0.109375 -2.03125 L 0.4375 -2.03125 L 0.953125 -0.546875 L 1.3125 -1.46875 L 1.09375 -2.03125 L 1.359375 -2.03125 L 1.921875 -0.578125 L 2.4375 -2.03125 L 2.71875 -2.03125 Z M 1.921875 0.09375 "/></g></g></g><g fill="#000000" fill-opacity="1"><g transform="translate(56.998332, 82.698786)"><g><path d="M 1.359375 -0.53125 L 0.578125 -0.53125 L 0.359375 0 L 0.09375 0 L 0.984375 -2.125 L 1 -2.125 L 1.890625 0 L 1.5625 0 Z M 1.265625 -0.765625 L 0.96875 -1.515625 L 0.671875 -0.765625 Z M 1.265625 -0.765625 "/></g></g></g><g fill="#000000" fill-opacity="1"><g transform="translate(59.697999, 82.698786)"><g><path d="M 1.40625 0 L 0.9375 -0.75 C 0.914062 -0.75 0.890625 -0.75 0.859375 -0.75 L 0.5625 -0.75 L 0.5625 0 L 0.296875 0 L 0.296875 -2.03125 L 0.828125 -2.03125 C 0.972656 -2.03125 1.097656 -2.003906 1.203125 -1.953125 C 1.316406 -1.910156 1.40625 -1.84375 1.46875 -1.75 C 1.53125 -1.65625 1.5625 -1.539062 1.5625 -1.40625 C 1.5625 -1.28125 1.53125 -1.164062 1.46875 -1.0625 C 1.414062 -0.957031 1.332031 -0.875 1.21875 -0.8125 L 1.734375 0 Z M 0.859375 -1.015625 C 1.003906 -1.015625 1.109375 -1.050781 1.171875 -1.125 C 1.242188 -1.207031 1.28125 -1.296875 1.28125 -1.390625 C 1.28125 -1.453125 1.265625 -1.507812 1.234375 -1.5625 C 1.203125 -1.625 1.15625 -1.671875 1.09375 -1.703125 C 1.039062 -1.742188 0.96875 -1.765625 0.875 -1.765625 L 0.5625 -1.765625 L 0.5625 -1.015625 Z M 0.859375 -1.015625 "/></g></g></g><g fill="#000000" fill-opacity="1"><g transform="translate(62.282127, 82.698786)"><g><path d="M 1.609375 -2.03125 L 1.609375 -1.765625 L 0.5625 -1.765625 L 0.5625 -1.15625 L 1.5 -1.15625 L 1.5 -0.890625 L 0.5625 -0.890625 L 0.5625 -0.265625 L 1.65625 -0.265625 L 1.65625 0 L 0.296875 0 L 0.296875 -2.03125 Z M 1.609375 -2.03125 "/></g></g></g><g fill="#000000" fill-opacity="1"><g transform="translate(64.846529, 82.698786)"><g/></g></g><g fill="#000000" fill-opacity="1"><g transform="translate(66.461253, 82.698786)"><g><path d="M 1.609375 -2.03125 L 1.609375 -1.765625 L 0.5625 -1.765625 L 0.5625 -1.15625 L 1.5 -1.15625 L 1.5 -0.890625 L 0.5625 -0.890625 L 0.5625 -0.265625 L 1.65625 -0.265625 L 1.65625 0 L 0.296875 0 L 0.296875 -2.03125 Z M 1.609375 -2.03125 "/></g></g></g><g fill="#000000" fill-opacity="1"><g transform="translate(69.025655, 82.698786)"><g><path d="M 2.0625 -2.03125 L 2.0625 0.0625 L 0.5625 -1.453125 L 0.5625 0 L 0.296875 0 L 0.296875 -2.09375 L 0.3125 -2.09375 L 1.796875 -0.5625 L 1.796875 -2.03125 Z M 2.0625 -2.03125 "/></g></g></g><g fill="#000000" fill-opacity="1"><g transform="translate(72.111392, 82.698786)"><g><path d="M 1.890625 -0.171875 C 1.828125 -0.117188 1.726562 -0.0703125 1.59375 -0.03125 C 1.457031 0 1.335938 0.015625 1.234375 0.015625 C 1.015625 0.015625 0.820312 -0.0234375 0.65625 -0.109375 C 0.5 -0.191406 0.378906 -0.304688 0.296875 -0.453125 C 0.210938 -0.609375 0.171875 -0.785156 0.171875 -0.984375 C 0.171875 -1.203125 0.21875 -1.390625 0.3125 -1.546875 C 0.40625 -1.710938 0.53125 -1.835938 0.6875 -1.921875 C 0.84375 -2.015625 1.015625 -2.0625 1.203125 -2.0625 C 1.316406 -2.0625 1.425781 -2.046875 1.53125 -2.015625 C 1.632812 -1.984375 1.726562 -1.945312 1.8125 -1.90625 L 1.71875 -1.65625 C 1.65625 -1.6875 1.578125 -1.710938 1.484375 -1.734375 C 1.398438 -1.765625 1.320312 -1.78125 1.25 -1.78125 C 1.082031 -1.78125 0.9375 -1.75 0.8125 -1.6875 C 0.695312 -1.625 0.609375 -1.53125 0.546875 -1.40625 C 0.484375 -1.289062 0.453125 -1.15625 0.453125 -1 C 0.453125 -0.851562 0.484375 -0.722656 0.546875 -0.609375 C 0.609375 -0.492188 0.695312 -0.40625 0.8125 -0.34375 C 0.9375 -0.28125 1.078125 -0.25 1.234375 -0.25 C 1.304688 -0.25 1.375 -0.253906 1.4375 -0.265625 C 1.507812 -0.285156 1.566406 -0.304688 1.609375 -0.328125 L 1.609375 -0.734375 L 1.203125 -0.734375 L 1.203125 -1 L 1.890625 -1 Z M 1.890625 -0.171875 "/></g></g></g><g fill="#000000" fill-opacity="1"><g transform="translate(74.954778, 82.698786)"><g><path d="M 0.5625 -2.03125 L 0.5625 0 L 0.296875 0 L 0.296875 -2.03125 Z M 0.5625 -2.03125 "/></g></g></g><g fill="#000000" fill-opacity="1"><g transform="translate(76.538503, 82.698786)"><g><path d="M 2.0625 -2.03125 L 2.0625 0.0625 L 0.5625 -1.453125 L 0.5625 0 L 0.296875 0 L 0.296875 -2.09375 L 0.3125 -2.09375 L 1.796875 -0.5625 L 1.796875 -2.03125 Z M 2.0625 -2.03125 "/></g></g></g><g fill="#000000" fill-opacity="1"><g transform="translate(79.624241, 82.698786)"><g><path d="M 1.609375 -2.03125 L 1.609375 -1.765625 L 0.5625 -1.765625 L 0.5625 -1.15625 L 1.5 -1.15625 L 1.5 -0.890625 L 0.5625 -0.890625 L 0.5625 -0.265625 L 1.65625 -0.265625 L 1.65625 0 L 0.296875 0 L 0.296875 -2.03125 Z M 1.609375 -2.03125 "/></g></g></g><g fill="#000000" fill-opacity="1"><g transform="translate(82.188643, 82.698786)"><g><path d="M 1.609375 -2.03125 L 1.609375 -1.765625 L 0.5625 -1.765625 L 0.5625 -1.15625 L 1.5 -1.15625 L 1.5 -0.890625 L 0.5625 -0.890625 L 0.5625 -0.265625 L 1.65625 -0.265625 L 1.65625 0 L 0.296875 0 L 0.296875 -2.03125 Z M 1.609375 -2.03125 "/></g></g></g><g fill="#000000" fill-opacity="1"><g transform="translate(84.753044, 82.698786)"><g><path d="M 1.40625 0 L 0.9375 -0.75 C 0.914062 -0.75 0.890625 -0.75 0.859375 -0.75 L 0.5625 -0.75 L 0.5625 0 L 0.296875 0 L 0.296875 -2.03125 L 0.828125 -2.03125 C 0.972656 -2.03125 1.097656 -2.003906 1.203125 -1.953125 C 1.316406 -1.910156 1.40625 -1.84375 1.46875 -1.75 C 1.53125 -1.65625 1.5625 -1.539062 1.5625 -1.40625 C 1.5625 -1.28125 1.53125 -1.164062 1.46875 -1.0625 C 1.414062 -0.957031 1.332031 -0.875 1.21875 -0.8125 L 1.734375 0 Z M 0.859375 -1.015625 C 1.003906 -1.015625 1.109375 -1.050781 1.171875 -1.125 C 1.242188 -1.207031 1.28125 -1.296875 1.28125 -1.390625 C 1.28125 -1.453125 1.265625 -1.507812 1.234375 -1.5625 C 1.203125 -1.625 1.15625 -1.671875 1.09375 -1.703125 C 1.039062 -1.742188 0.96875 -1.765625 0.875 -1.765625 L 0.5625 -1.765625 L 0.5625 -1.015625 Z M 0.859375 -1.015625 "/></g></g></g></svg>