<svg xmlns="http://www.w3.org/2000/svg" xmlns:xlink="http://www.w3.org/1999/xlink" width="500" zoomAndPan="magnify" viewBox="0 0 375 374.999991" height="500" preserveAspectRatio="xMidYMid meet" version="1.0"><defs><g/><clipPath id="7c8e2699df"><path d="M 48.320312 149 L 237.320312 149 L 237.320312 193.199219 L 48.320312 193.199219 Z M 48.320312 149 " clip-rule="nonzero"/></clipPath></defs><g clip-path="url(#7c8e2699df)"><path fill="#000000" d="M 236.699219 179.0625 C 236.800781 178.945312 236.914062 178.839844 237.039062 178.753906 C 237.121094 178.628906 237.214844 178.507812 237.332031 178.40625 C 237.300781 178.269531 237.269531 178.128906 237.238281 177.988281 C 237.113281 178.015625 236.980469 178.03125 236.835938 178.03125 C 236.734375 178.03125 236.640625 178.023438 236.550781 178.007812 C 236.550781 178.035156 236.550781 178.0625 236.554688 178.085938 C 234.28125 179.996094 231.773438 181.574219 229.097656 182.902344 C 227.253906 183.816406 225.332031 184.542969 223.371094 185.152344 C 220.300781 186.101562 217.191406 186.878906 214.007812 187.375 C 212.65625 187.585938 211.292969 187.691406 209.929688 187.820312 C 206.773438 188.136719 203.609375 188.058594 200.460938 187.707031 C 196.636719 187.273438 192.890625 186.394531 189.253906 185.117188 C 184.664062 183.496094 180.285156 181.4375 176.113281 178.957031 L 176.878906 178.585938 C 177.484375 178.265625 178.097656 177.964844 178.691406 177.640625 C 181.523438 176.101562 184.199219 174.339844 186.632812 172.21875 C 188.621094 170.488281 190.421875 168.582031 191.9375 166.414062 C 192.824219 165.136719 193.59375 163.789062 194.1875 162.34375 C 194.714844 161.070312 195.015625 159.753906 195.042969 158.375 C 195.066406 157.027344 194.769531 155.761719 194.117188 154.59375 C 193.214844 152.988281 191.835938 151.910156 190.0625 151.476562 C 187.632812 150.886719 185.238281 151.058594 182.941406 152.160156 C 181.121094 153.039062 179.515625 154.191406 178.242188 155.78125 C 178.152344 155.894531 178.058594 156.003906 177.960938 156.113281 C 177.828125 156.265625 177.6875 156.265625 177.636719 156.109375 C 177.527344 155.734375 177.429688 155.359375 177.300781 154.992188 C 176.597656 152.976562 175.332031 151.441406 173.417969 150.457031 C 172.8125 150.140625 172.1875 149.894531 171.535156 149.679688 C 169.324219 148.953125 167.207031 149.195312 165.191406 150.304688 C 163.140625 151.433594 161.777344 153.167969 161.015625 155.359375 C 160.277344 157.472656 160.160156 159.644531 160.578125 161.835938 C 161.15625 164.894531 162.390625 167.679688 164.203125 170.203125 C 165.164062 171.550781 166.261719 172.789062 167.4375 173.957031 C 169.101562 175.609375 170.90625 177.074219 172.875 178.355469 C 173.117188 178.511719 173.570312 178.839844 173.792969 179.019531 L 172.90625 179.453125 C 170.460938 180.417969 167.949219 181.175781 165.378906 181.757812 C 159.648438 183.058594 153.839844 183.378906 147.984375 183.046875 C 144.046875 182.828125 140.140625 182.269531 136.246094 181.675781 C 135 181.480469 133.757812 181.242188 132.515625 181.007812 C 131.179688 180.753906 129.847656 180.464844 128.511719 180.207031 C 127.175781 179.949219 125.832031 179.707031 124.496094 179.453125 C 123.398438 179.246094 122.296875 179.027344 121.203125 178.808594 C 119.816406 178.535156 118.4375 178.246094 117.054688 177.980469 C 115.570312 177.703125 114.085938 177.4375 112.601562 177.175781 C 110.78125 176.859375 108.964844 176.492188 107.136719 176.25 C 103.566406 175.777344 100.015625 175.175781 96.421875 174.875 C 92.0625 174.460938 87.707031 174.003906 83.320312 173.964844 C 81.375 173.949219 79.433594 173.949219 77.484375 174.007812 C 74.710938 174.085938 71.960938 174.371094 69.21875 174.808594 C 66.578125 175.234375 63.960938 175.808594 61.433594 176.714844 C 59.414062 177.4375 57.492188 178.371094 55.730469 179.613281 C 53.992188 180.828125 52.558594 182.332031 51.414062 184.109375 C 50.496094 185.546875 49.738281 187.074219 49.179688 188.6875 C 48.910156 189.46875 48.695312 190.265625 48.480469 191.066406 C 48.324219 191.621094 48.472656 192.125 48.847656 192.5625 C 49.269531 193.050781 50.046875 193.167969 50.566406 192.824219 C 51.082031 192.488281 51.300781 191.878906 51.109375 191.300781 C 51.078125 191.203125 51.046875 191.109375 51.003906 191.027344 C 50.640625 190.289062 50.648438 189.519531 50.804688 188.742188 C 50.878906 188.363281 50.957031 187.980469 51.058594 187.605469 C 51.574219 185.648438 52.457031 183.886719 53.800781 182.355469 C 54.96875 181.023438 56.347656 179.960938 57.871094 179.074219 C 59.734375 177.992188 61.730469 177.230469 63.804688 176.664062 C 68.425781 175.398438 73.128906 174.75 77.917969 174.671875 C 79.085938 174.652344 80.253906 174.683594 81.421875 174.652344 C 83.757812 174.585938 86.089844 174.761719 88.421875 174.871094 C 93.828125 175.128906 99.167969 175.945312 104.527344 176.625 C 104.574219 176.628906 104.621094 176.640625 104.667969 176.644531 C 106.878906 176.996094 109.085938 177.34375 111.292969 177.710938 C 112.78125 177.960938 114.261719 178.238281 115.746094 178.511719 C 116.75 178.695312 117.75 178.902344 118.75 179.101562 C 120.085938 179.371094 121.417969 179.648438 122.753906 179.90625 C 124.089844 180.171875 125.433594 180.40625 126.769531 180.664062 C 129.105469 181.121094 131.4375 181.628906 133.785156 182.03125 C 135.992188 182.410156 138.191406 182.832031 140.421875 183.054688 C 141.441406 183.152344 142.453125 183.3125 143.464844 183.4375 C 146.320312 183.804688 149.1875 183.910156 152.058594 183.957031 C 154.488281 184 156.914062 183.835938 159.335938 183.5625 C 162.871094 183.164062 166.34375 182.472656 169.742188 181.410156 C 171.25 180.941406 173.347656 180.183594 174.828125 179.570312 C 176.6875 180.667969 178.582031 181.695312 180.527344 182.636719 C 184.375 184.5 188.320312 186.101562 192.460938 187.1875 C 194.347656 187.683594 196.242188 188.148438 198.167969 188.4375 C 200.824219 188.832031 203.503906 189.007812 206.429688 188.941406 C 208.367188 188.988281 210.519531 188.769531 212.65625 188.472656 C 216.886719 187.898438 221.015625 186.847656 225.042969 185.394531 C 228.574219 184.117188 231.886719 182.402344 234.96875 180.25 C 235.5625 179.832031 236.125 179.386719 236.679688 178.933594 Z M 174.933594 178.21875 C 174.679688 178.082031 174.425781 177.941406 174.175781 177.78125 C 171.027344 175.78125 168.296875 173.316406 165.988281 170.382812 C 164.214844 168.140625 162.960938 165.636719 162.21875 162.875 C 161.824219 161.40625 161.636719 159.921875 161.796875 158.597656 C 161.902344 157.386719 162.050781 156.375 162.445312 155.417969 C 163.015625 154.039062 163.847656 152.855469 165.035156 151.953125 C 166.765625 150.625 168.707031 150.261719 170.824219 150.757812 C 171.828125 150.992188 172.761719 151.398438 173.625 151.960938 C 175.207031 153.003906 176.203125 154.445312 176.574219 156.304688 C 176.75 157.171875 176.769531 158.042969 176.382812 158.875 C 176.191406 159.277344 176.058594 159.691406 176.082031 160.140625 C 176.089844 160.277344 176.15625 160.417969 176.210938 160.542969 C 176.28125 160.691406 176.609375 160.765625 176.722656 160.671875 C 176.796875 160.605469 176.886719 160.558594 176.945312 160.484375 C 177.40625 159.863281 177.875 159.246094 178.328125 158.609375 C 178.582031 158.253906 178.800781 157.875 179.039062 157.507812 C 180.175781 155.75 181.691406 154.417969 183.5 153.398438 C 184.539062 152.8125 185.648438 152.488281 186.820312 152.394531 C 187.796875 152.320312 188.769531 152.347656 189.726562 152.566406 C 191.617188 152.992188 192.96875 154.089844 193.652344 155.917969 C 194.214844 157.429688 194.242188 158.964844 193.828125 160.511719 C 193.546875 161.542969 193.148438 162.53125 192.648438 163.484375 C 191.722656 165.261719 190.578125 166.894531 189.253906 168.394531 C 187.121094 170.816406 184.683594 172.898438 181.996094 174.683594 C 180.167969 175.898438 178.273438 176.980469 176.300781 177.945312 C 176.082031 178.050781 175.535156 178.308594 175.308594 178.398438 C 175.308594 178.398438 175.164062 178.351562 174.933594 178.21875 Z M 174.933594 178.21875 " fill-opacity="1" fill-rule="nonzero"/></g><g fill="#000000" fill-opacity="1"><g transform="translate(211.960922, 174.602298)"><g><path d="M 11.058594 -9.339844 C 12.636719 -7.417969 19.058594 -8.070312 22.457031 -8.414062 C 14.664062 2.917969 9.789062 10.0625 15.214844 11.847656 C 19.164062 13.152344 32.898438 10.542969 41.65625 -8.035156 C 41.65625 -8.207031 41.175781 -8.308594 41.070312 -8.105469 C 32.828125 8.515625 21.015625 12.191406 15.96875 11.265625 C 11.917969 10.507812 20.089844 -1.132812 25.34375 -8.859375 C 29.222656 -9.753906 34.753906 -9.445312 35.441406 -8.070312 C 35.578125 -8.070312 35.953125 -8.070312 36.023438 -8.070312 C 35.371094 -9.957031 30.253906 -10.300781 25.6875 -9.445312 C 31.113281 -17.652344 36.46875 -27.574219 37.707031 -30.839844 C 32.417969 -28.707031 11.402344 -38.1875 10.679688 -22.289062 C 2.199219 -25.925781 -2.746094 -18.957031 0.789062 -13.1875 L 1.683594 -13.1875 C -2.09375 -17.960938 1.683594 -25.378906 10.613281 -21.804688 C 10.75 -13.976562 13.738281 -10.679688 16.347656 -11.023438 C 18.820312 -11.367188 20.535156 -17.34375 11.230469 -22.117188 C 11.710938 -35.886719 27.816406 -29.671875 35.269531 -29.980469 C 33.140625 -25.789062 28.878906 -18.132812 22.90625 -9.03125 C 18.75 -8.378906 12.773438 -8.308594 12.121094 -9.339844 Z M 16.550781 -11.503906 C 14.59375 -11.058594 11.605469 -12.773438 11.125 -21.53125 C 19.402344 -17.101562 18.132812 -11.882812 16.550781 -11.503906 Z M 16.550781 -11.503906 "/></g></g></g><g fill="#000000" fill-opacity="1"><g transform="translate(252.921555, 174.602298)"><g><path d="M 40.832031 7.347656 C 33.894531 9.925781 54.15625 -34.789062 40.796875 -31.867188 C 35.507812 -30.597656 31.492188 -21.945312 29.085938 -15.554688 C 30.597656 -25.6875 30.015625 -32.898438 23.351562 -32.28125 C 18.40625 -31.902344 13.496094 -27.027344 12.257812 -20.398438 C 4.601562 -25.550781 -1.546875 -19.609375 0.894531 -13.289062 L 1.75 -13.117188 C -1.097656 -18.507812 3.984375 -25.101562 12.121094 -19.953125 C 10.78125 -12.226562 13.117188 -8.449219 15.761719 -8.277344 C 18.269531 -8.171875 21.1875 -13.703125 12.914062 -20.089844 C 13.875 -26.167969 18.507812 -31.558594 23.386719 -31.867188 C 28.949219 -32.28125 28.949219 -27.265625 27.609375 -19.195312 C 25.515625 -6.523438 18.507812 11.402344 10.988281 11.46875 C -0.789062 11.605469 -1.339844 -7.109375 12.15625 -7.519531 C 12.707031 -6.765625 13.667969 -7.828125 12.398438 -8.070312 C -1.957031 -7.828125 -1.71875 12.019531 10.851562 12.019531 C 17.101562 12.019531 22.21875 5.527344 27.027344 -8.308594 C 33.585938 -9.167969 38.667969 -9.476562 40.316406 -9.789062 C 38.394531 -1.066406 35.679688 8.550781 40.625 7.863281 C 44.09375 7.382812 50.996094 -2.472656 54.945312 -8.070312 C 54.945312 -8.242188 54.464844 -8.277344 54.363281 -8.105469 C 48.9375 -0.550781 44.164062 6.113281 40.832031 7.347656 Z M 40.386719 -31.25 C 47.699219 -33.722656 41.863281 -18.40625 40.417969 -10.269531 C 37.054688 -9.71875 31.867188 -9.476562 27.199219 -8.859375 C 32.144531 -23.386719 36.230469 -29.84375 40.386719 -31.25 Z M 16.070312 -8.722656 C 14.078125 -8.621094 11.574219 -10.851562 12.707031 -19.574219 C 20.054688 -13.703125 17.6875 -8.824219 16.070312 -8.722656 Z M 16.070312 -8.722656 "/></g></g></g><g fill="#000000" fill-opacity="1"><g transform="translate(114.24018, 197.35138)"><g><path d="M 7.421875 -1.0625 L 7.421875 0 L 0.578125 0 L 2.5 -2.859375 C 4.03125 -5.160156 4.984375 -6.578125 5.359375 -7.109375 L 1.96875 -7.109375 C 1.726562 -7.109375 1.507812 -7.171875 1.3125 -7.296875 C 1.125 -7.421875 1.03125 -7.585938 1.03125 -7.796875 L 1.03125 -8.5625 L 2.046875 -8.5625 L 2.046875 -8.421875 C 2.046875 -8.296875 2.066406 -8.21875 2.109375 -8.1875 C 2.160156 -8.164062 2.265625 -8.15625 2.421875 -8.15625 L 7.296875 -8.15625 L 2.453125 -1.0625 Z M 7.421875 -1.0625 "/></g></g></g><g fill="#000000" fill-opacity="1"><g transform="translate(125.183749, 197.35138)"><g><path d="M 6.46875 -8.15625 L 6.46875 -7.109375 L 2.265625 -7.109375 L 2.265625 -4.625 L 6.03125 -4.625 L 6.03125 -3.578125 L 2.265625 -3.578125 L 2.265625 -1.0625 L 6.640625 -1.0625 L 6.640625 0 L 1.171875 0 L 1.171875 -8.15625 Z M 6.46875 -8.15625 "/></g></g></g><g fill="#000000" fill-opacity="1"><g transform="translate(135.45047, 197.35138)"><g><path d="M 2.265625 -8.15625 L 2.265625 0 L 1.171875 0 L 1.171875 -8.15625 Z M 2.265625 -8.15625 "/></g></g></g><g fill="#000000" fill-opacity="1"><g transform="translate(141.791489, 197.35138)"><g><path d="M 8.28125 -8.15625 L 8.28125 0.265625 L 8.25 0.265625 L 2.25 -5.8125 L 2.28125 0 L 1.171875 0 L 1.171875 -8.40625 L 1.234375 -8.40625 L 7.203125 -2.25 L 7.1875 -8.15625 Z M 8.28125 -8.15625 "/></g></g></g><g fill="#000000" fill-opacity="1"><g transform="translate(154.145158, 197.35138)"><g><path d="M 5.453125 -2.140625 L 2.3125 -2.140625 L 1.4375 0 L 0.359375 0 L 3.921875 -8.5 L 4 -8.5 L 7.5625 0 L 6.296875 0 Z M 5.078125 -3.09375 L 3.921875 -6.0625 L 2.703125 -3.09375 Z M 5.078125 -3.09375 "/></g></g></g><g fill="#000000" fill-opacity="1"><g transform="translate(164.953365, 197.35138)"><g><path d="M 4.8125 -4.234375 C 5.269531 -4.046875 5.632812 -3.785156 5.90625 -3.453125 C 6.175781 -3.117188 6.3125 -2.734375 6.3125 -2.296875 C 6.3125 -1.773438 6.1875 -1.34375 5.9375 -1 C 5.6875 -0.65625 5.351562 -0.398438 4.9375 -0.234375 C 4.53125 -0.078125 4.082031 0 3.59375 0 L 1.171875 0 L 1.171875 -8.15625 L 3.28125 -8.15625 C 4.113281 -8.15625 4.757812 -7.984375 5.21875 -7.640625 C 5.675781 -7.296875 5.90625 -6.785156 5.90625 -6.109375 C 5.90625 -5.671875 5.8125 -5.289062 5.625 -4.96875 C 5.4375 -4.65625 5.164062 -4.410156 4.8125 -4.234375 Z M 2.265625 -4.59375 L 3.515625 -4.59375 C 3.929688 -4.59375 4.242188 -4.710938 4.453125 -4.953125 C 4.671875 -5.191406 4.78125 -5.5 4.78125 -5.875 C 4.78125 -6.289062 4.648438 -6.597656 4.390625 -6.796875 C 4.140625 -7.003906 3.785156 -7.109375 3.328125 -7.109375 L 2.265625 -7.109375 Z M 3.546875 -1.015625 C 4.023438 -1.015625 4.414062 -1.117188 4.71875 -1.328125 C 5.03125 -1.546875 5.1875 -1.863281 5.1875 -2.28125 C 5.1875 -2.707031 5.019531 -3.019531 4.6875 -3.21875 C 4.351562 -3.425781 3.945312 -3.53125 3.46875 -3.53125 L 2.265625 -3.53125 L 2.265625 -1.015625 Z M 3.546875 -1.015625 "/></g></g></g><g fill="#000000" fill-opacity="1"><g transform="translate(174.836541, 197.35138)"><g/></g></g><g fill="#000000" fill-opacity="1"><g transform="translate(181.301655, 197.35138)"><g><path d="M 5.453125 -2.140625 L 2.3125 -2.140625 L 1.4375 0 L 0.359375 0 L 3.921875 -8.5 L 4 -8.5 L 7.5625 0 L 6.296875 0 Z M 5.078125 -3.09375 L 3.921875 -6.0625 L 2.703125 -3.09375 Z M 5.078125 -3.09375 "/></g></g></g><g fill="#000000" fill-opacity="1"><g transform="translate(192.109858, 197.35138)"><g><path d="M 4.8125 -4.234375 C 5.269531 -4.046875 5.632812 -3.785156 5.90625 -3.453125 C 6.175781 -3.117188 6.3125 -2.734375 6.3125 -2.296875 C 6.3125 -1.773438 6.1875 -1.34375 5.9375 -1 C 5.6875 -0.65625 5.351562 -0.398438 4.9375 -0.234375 C 4.53125 -0.078125 4.082031 0 3.59375 0 L 1.171875 0 L 1.171875 -8.15625 L 3.28125 -8.15625 C 4.113281 -8.15625 4.757812 -7.984375 5.21875 -7.640625 C 5.675781 -7.296875 5.90625 -6.785156 5.90625 -6.109375 C 5.90625 -5.671875 5.8125 -5.289062 5.625 -4.96875 C 5.4375 -4.65625 5.164062 -4.410156 4.8125 -4.234375 Z M 2.265625 -4.59375 L 3.515625 -4.59375 C 3.929688 -4.59375 4.242188 -4.710938 4.453125 -4.953125 C 4.671875 -5.191406 4.78125 -5.5 4.78125 -5.875 C 4.78125 -6.289062 4.648438 -6.597656 4.390625 -6.796875 C 4.140625 -7.003906 3.785156 -7.109375 3.328125 -7.109375 L 2.265625 -7.109375 Z M 3.546875 -1.015625 C 4.023438 -1.015625 4.414062 -1.117188 4.71875 -1.328125 C 5.03125 -1.546875 5.1875 -1.863281 5.1875 -2.28125 C 5.1875 -2.707031 5.019531 -3.019531 4.6875 -3.21875 C 4.351562 -3.425781 3.945312 -3.53125 3.46875 -3.53125 L 2.265625 -3.53125 L 2.265625 -1.015625 Z M 3.546875 -1.015625 "/></g></g></g><g fill="#000000" fill-opacity="1"><g transform="translate(201.993032, 197.35138)"><g><path d="M 2.171875 -2.890625 C 2.171875 -2.523438 2.253906 -2.195312 2.421875 -1.90625 C 2.597656 -1.625 2.832031 -1.394531 3.125 -1.21875 C 3.425781 -1.050781 3.757812 -0.96875 4.125 -0.96875 C 4.5 -0.96875 4.835938 -1.050781 5.140625 -1.21875 C 5.441406 -1.382812 5.675781 -1.613281 5.84375 -1.90625 C 6.019531 -2.195312 6.109375 -2.523438 6.109375 -2.890625 L 6.109375 -8.15625 L 7.1875 -8.15625 L 7.1875 -2.859375 C 7.1875 -2.273438 7.050781 -1.757812 6.78125 -1.3125 C 6.507812 -0.863281 6.140625 -0.515625 5.671875 -0.265625 C 5.203125 -0.0234375 4.6875 0.09375 4.125 0.09375 C 3.550781 0.09375 3.03125 -0.0234375 2.5625 -0.265625 C 2.101562 -0.515625 1.738281 -0.863281 1.46875 -1.3125 C 1.207031 -1.757812 1.078125 -2.273438 1.078125 -2.859375 L 1.078125 -8.15625 L 2.171875 -8.15625 Z M 2.171875 -2.890625 "/></g></g></g><g fill="#000000" fill-opacity="1"><g transform="translate(107.9539, 206.746947)"><g><path d="M 3.375 -4.1875 C 3.1875 -4.28125 2.988281 -4.359375 2.78125 -4.421875 C 2.570312 -4.484375 2.378906 -4.515625 2.203125 -4.515625 C 1.921875 -4.515625 1.695312 -4.453125 1.53125 -4.328125 C 1.375 -4.203125 1.296875 -4.03125 1.296875 -3.8125 C 1.296875 -3.601562 1.390625 -3.429688 1.578125 -3.296875 C 1.773438 -3.160156 2.046875 -3.03125 2.390625 -2.90625 C 2.660156 -2.8125 2.882812 -2.707031 3.0625 -2.59375 C 3.238281 -2.488281 3.382812 -2.335938 3.5 -2.140625 C 3.625 -1.941406 3.6875 -1.691406 3.6875 -1.390625 C 3.6875 -1.117188 3.617188 -0.875 3.484375 -0.65625 C 3.347656 -0.4375 3.15625 -0.257812 2.90625 -0.125 C 2.65625 0 2.359375 0.0625 2.015625 0.0625 C 1.703125 0.0625 1.398438 0.0078125 1.109375 -0.09375 C 0.816406 -0.195312 0.5625 -0.328125 0.34375 -0.484375 L 0.640625 -1.015625 C 0.816406 -0.890625 1.023438 -0.78125 1.265625 -0.6875 C 1.515625 -0.59375 1.742188 -0.546875 1.953125 -0.546875 C 2.234375 -0.546875 2.472656 -0.613281 2.671875 -0.75 C 2.878906 -0.894531 2.984375 -1.109375 2.984375 -1.390625 C 2.984375 -1.617188 2.894531 -1.800781 2.71875 -1.9375 C 2.550781 -2.082031 2.3125 -2.21875 2 -2.34375 C 1.71875 -2.445312 1.476562 -2.550781 1.28125 -2.65625 C 1.09375 -2.757812 0.929688 -2.898438 0.796875 -3.078125 C 0.660156 -3.265625 0.59375 -3.492188 0.59375 -3.765625 C 0.59375 -4.160156 0.734375 -4.484375 1.015625 -4.734375 C 1.296875 -4.984375 1.65625 -5.113281 2.09375 -5.125 C 2.644531 -5.125 3.15625 -4.988281 3.625 -4.71875 Z M 3.375 -4.1875 "/></g></g></g><g fill="#000000" fill-opacity="1"><g transform="translate(113.864705, 206.746947)"><g><path d="M 0.421875 -2.546875 C 0.421875 -3.003906 0.535156 -3.429688 0.765625 -3.828125 C 1.003906 -4.234375 1.320312 -4.554688 1.71875 -4.796875 C 2.113281 -5.035156 2.546875 -5.15625 3.015625 -5.15625 C 3.484375 -5.15625 3.914062 -5.035156 4.3125 -4.796875 C 4.707031 -4.554688 5.023438 -4.234375 5.265625 -3.828125 C 5.503906 -3.429688 5.625 -3.003906 5.625 -2.546875 C 5.625 -2.078125 5.503906 -1.640625 5.265625 -1.234375 C 5.035156 -0.835938 4.71875 -0.519531 4.3125 -0.28125 C 3.914062 -0.0507812 3.484375 0.0625 3.015625 0.0625 C 2.546875 0.0625 2.109375 -0.0507812 1.703125 -0.28125 C 1.304688 -0.519531 0.992188 -0.835938 0.765625 -1.234375 C 0.535156 -1.628906 0.421875 -2.066406 0.421875 -2.546875 Z M 1.125 -2.53125 C 1.125 -2.1875 1.207031 -1.863281 1.375 -1.5625 C 1.539062 -1.269531 1.769531 -1.035156 2.0625 -0.859375 C 2.363281 -0.691406 2.6875 -0.609375 3.03125 -0.609375 C 3.375 -0.609375 3.691406 -0.691406 3.984375 -0.859375 C 4.273438 -1.035156 4.503906 -1.269531 4.671875 -1.5625 C 4.835938 -1.863281 4.921875 -2.191406 4.921875 -2.546875 C 4.921875 -2.898438 4.832031 -3.222656 4.65625 -3.515625 C 4.488281 -3.816406 4.257812 -4.054688 3.96875 -4.234375 C 3.675781 -4.410156 3.359375 -4.5 3.015625 -4.5 C 2.671875 -4.5 2.351562 -4.410156 2.0625 -4.234375 C 1.769531 -4.054688 1.539062 -3.816406 1.375 -3.515625 C 1.207031 -3.210938 1.125 -2.882812 1.125 -2.53125 Z M 1.125 -2.53125 "/></g></g></g><g fill="#000000" fill-opacity="1"><g transform="translate(121.712902, 206.746947)"><g><path d="M 3.75 -5.09375 L 3.75 -4.4375 L 1.421875 -4.4375 L 1.421875 -2.8125 L 3.46875 -2.8125 L 3.46875 -2.15625 L 1.421875 -2.15625 L 1.421875 0 L 0.734375 0 L 0.734375 -5.09375 Z M 3.75 -5.09375 "/></g></g></g><g fill="#000000" fill-opacity="1"><g transform="translate(127.673021, 206.746947)"><g><path d="M 3.734375 -5.09375 L 3.734375 -4.4375 L 2.375 -4.4375 L 2.375 0 L 1.6875 0 L 1.6875 -4.4375 L 0.359375 -4.4375 L 0.359375 -5.09375 Z M 3.734375 -5.09375 "/></g></g></g><g fill="#000000" fill-opacity="1"><g transform="translate(133.583826, 206.746947)"><g><path d="M 4.8125 0.21875 L 3.625 -2.8125 L 2.3125 0.234375 L 0.28125 -5.078125 L 1.078125 -5.078125 L 2.40625 -1.359375 L 3.28125 -3.671875 L 2.734375 -5.078125 L 3.421875 -5.078125 L 4.828125 -1.4375 L 6.09375 -5.078125 L 6.828125 -5.078125 Z M 4.8125 0.21875 "/></g></g></g><g fill="#000000" fill-opacity="1"><g transform="translate(142.495828, 206.746947)"><g><path d="M 3.40625 -1.34375 L 1.4375 -1.34375 L 0.90625 0 L 0.21875 0 L 2.453125 -5.3125 L 2.5 -5.3125 L 4.71875 0 L 3.9375 0 Z M 3.171875 -1.9375 L 2.4375 -3.796875 L 1.6875 -1.9375 Z M 3.171875 -1.9375 "/></g></g></g><g fill="#000000" fill-opacity="1"><g transform="translate(149.244996, 206.746947)"><g><path d="M 3.53125 0 L 2.34375 -1.875 C 2.300781 -1.875 2.242188 -1.875 2.171875 -1.875 L 1.421875 -1.875 L 1.421875 0 L 0.734375 0 L 0.734375 -5.09375 L 2.09375 -5.09375 C 2.4375 -5.09375 2.742188 -5.03125 3.015625 -4.90625 C 3.296875 -4.789062 3.507812 -4.613281 3.65625 -4.375 C 3.8125 -4.132812 3.890625 -3.847656 3.890625 -3.515625 C 3.890625 -3.203125 3.820312 -2.910156 3.6875 -2.640625 C 3.550781 -2.378906 3.335938 -2.179688 3.046875 -2.046875 L 4.328125 0 Z M 2.15625 -2.53125 C 2.519531 -2.53125 2.78125 -2.625 2.9375 -2.8125 C 3.101562 -3.007812 3.1875 -3.234375 3.1875 -3.484375 C 3.1875 -3.640625 3.148438 -3.789062 3.078125 -3.9375 C 3.015625 -4.082031 2.910156 -4.203125 2.765625 -4.296875 C 2.617188 -4.390625 2.429688 -4.4375 2.203125 -4.4375 L 1.421875 -4.4375 L 1.421875 -2.53125 Z M 2.15625 -2.53125 "/></g></g></g><g fill="#000000" fill-opacity="1"><g transform="translate(155.705315, 206.746947)"><g><path d="M 4.046875 -5.09375 L 4.046875 -4.4375 L 1.421875 -4.4375 L 1.421875 -2.890625 L 3.765625 -2.890625 L 3.765625 -2.234375 L 1.421875 -2.234375 L 1.421875 -0.65625 L 4.140625 -0.65625 L 4.140625 0 L 0.734375 0 L 0.734375 -5.09375 Z M 4.046875 -5.09375 "/></g></g></g><g fill="#000000" fill-opacity="1"><g transform="translate(162.116319, 206.746947)"><g/></g></g><g fill="#000000" fill-opacity="1"><g transform="translate(166.15313, 206.746947)"><g><path d="M 4.046875 -5.09375 L 4.046875 -4.4375 L 1.421875 -4.4375 L 1.421875 -2.890625 L 3.765625 -2.890625 L 3.765625 -2.234375 L 1.421875 -2.234375 L 1.421875 -0.65625 L 4.140625 -0.65625 L 4.140625 0 L 0.734375 0 L 0.734375 -5.09375 Z M 4.046875 -5.09375 "/></g></g></g><g fill="#000000" fill-opacity="1"><g transform="translate(172.564134, 206.746947)"><g><path d="M 5.171875 -5.09375 L 5.171875 0.171875 L 5.15625 0.171875 L 1.40625 -3.625 L 1.421875 0 L 0.734375 0 L 0.734375 -5.25 L 0.765625 -5.25 L 4.5 -1.40625 L 4.484375 -5.09375 Z M 5.171875 -5.09375 "/></g></g></g><g fill="#000000" fill-opacity="1"><g transform="translate(180.278477, 206.746947)"><g><path d="M 4.734375 -0.4375 C 4.578125 -0.3125 4.332031 -0.195312 4 -0.09375 C 3.664062 0.0078125 3.359375 0.0625 3.078125 0.0625 C 2.546875 0.0625 2.078125 -0.046875 1.671875 -0.265625 C 1.273438 -0.484375 0.96875 -0.78125 0.75 -1.15625 C 0.53125 -1.539062 0.421875 -1.972656 0.421875 -2.453125 C 0.421875 -3.003906 0.535156 -3.484375 0.765625 -3.890625 C 1.003906 -4.296875 1.320312 -4.609375 1.71875 -4.828125 C 2.113281 -5.046875 2.550781 -5.15625 3.03125 -5.15625 C 3.3125 -5.15625 3.578125 -5.117188 3.828125 -5.046875 C 4.085938 -4.984375 4.320312 -4.894531 4.53125 -4.78125 L 4.296875 -4.15625 C 4.148438 -4.238281 3.960938 -4.3125 3.734375 -4.375 C 3.503906 -4.4375 3.296875 -4.46875 3.109375 -4.46875 C 2.710938 -4.46875 2.363281 -4.382812 2.0625 -4.21875 C 1.757812 -4.0625 1.523438 -3.832031 1.359375 -3.53125 C 1.203125 -3.238281 1.125 -2.898438 1.125 -2.515625 C 1.125 -2.140625 1.203125 -1.804688 1.359375 -1.515625 C 1.523438 -1.234375 1.757812 -1.015625 2.0625 -0.859375 C 2.363281 -0.703125 2.707031 -0.625 3.09375 -0.625 C 3.269531 -0.625 3.441406 -0.640625 3.609375 -0.671875 C 3.785156 -0.710938 3.925781 -0.765625 4.03125 -0.828125 L 4.03125 -1.84375 L 3.015625 -1.84375 L 3.015625 -2.5 L 4.734375 -2.5 Z M 4.734375 -0.4375 "/></g></g></g><g fill="#000000" fill-opacity="1"><g transform="translate(187.386941, 206.746947)"><g><path d="M 1.421875 -5.09375 L 1.421875 0 L 0.734375 0 L 0.734375 -5.09375 Z M 1.421875 -5.09375 "/></g></g></g><g fill="#000000" fill-opacity="1"><g transform="translate(191.346254, 206.746947)"><g><path d="M 5.171875 -5.09375 L 5.171875 0.171875 L 5.15625 0.171875 L 1.40625 -3.625 L 1.421875 0 L 0.734375 0 L 0.734375 -5.25 L 0.765625 -5.25 L 4.5 -1.40625 L 4.484375 -5.09375 Z M 5.171875 -5.09375 "/></g></g></g><g fill="#000000" fill-opacity="1"><g transform="translate(199.060597, 206.746947)"><g><path d="M 4.046875 -5.09375 L 4.046875 -4.4375 L 1.421875 -4.4375 L 1.421875 -2.890625 L 3.765625 -2.890625 L 3.765625 -2.234375 L 1.421875 -2.234375 L 1.421875 -0.65625 L 4.140625 -0.65625 L 4.140625 0 L 0.734375 0 L 0.734375 -5.09375 Z M 4.046875 -5.09375 "/></g></g></g><g fill="#000000" fill-opacity="1"><g transform="translate(205.471601, 206.746947)"><g><path d="M 4.046875 -5.09375 L 4.046875 -4.4375 L 1.421875 -4.4375 L 1.421875 -2.890625 L 3.765625 -2.890625 L 3.765625 -2.234375 L 1.421875 -2.234375 L 1.421875 -0.65625 L 4.140625 -0.65625 L 4.140625 0 L 0.734375 0 L 0.734375 -5.09375 Z M 4.046875 -5.09375 "/></g></g></g><g fill="#000000" fill-opacity="1"><g transform="translate(211.882606, 206.746947)"><g><path d="M 3.53125 0 L 2.34375 -1.875 C 2.300781 -1.875 2.242188 -1.875 2.171875 -1.875 L 1.421875 -1.875 L 1.421875 0 L 0.734375 0 L 0.734375 -5.09375 L 2.09375 -5.09375 C 2.4375 -5.09375 2.742188 -5.03125 3.015625 -4.90625 C 3.296875 -4.789062 3.507812 -4.613281 3.65625 -4.375 C 3.8125 -4.132812 3.890625 -3.847656 3.890625 -3.515625 C 3.890625 -3.203125 3.820312 -2.910156 3.6875 -2.640625 C 3.550781 -2.378906 3.335938 -2.179688 3.046875 -2.046875 L 4.328125 0 Z M 2.15625 -2.53125 C 2.519531 -2.53125 2.78125 -2.625 2.9375 -2.8125 C 3.101562 -3.007812 3.1875 -3.234375 3.1875 -3.484375 C 3.1875 -3.640625 3.148438 -3.789062 3.078125 -3.9375 C 3.015625 -4.082031 2.910156 -4.203125 2.765625 -4.296875 C 2.617188 -4.390625 2.429688 -4.4375 2.203125 -4.4375 L 1.421875 -4.4375 L 1.421875 -2.53125 Z M 2.15625 -2.53125 "/></g></g></g></svg>