<svg xmlns="http://www.w3.org/2000/svg" xmlns:xlink="http://www.w3.org/1999/xlink" width="600" zoomAndPan="magnify" viewBox="0 0 450 60" height="80" preserveAspectRatio="xMidYMid meet" version="1.0"><defs><g/><clipPath id="373c30fafe"><path d="M 117.851562 12.113281 L 248.351562 12.113281 L 248.351562 42.863281 L 117.851562 42.863281 Z M 117.851562 12.113281 " clip-rule="nonzero"/></clipPath></defs><g clip-path="url(#373c30fafe)"><path fill="#000000" d="M 247.921875 33.039062 C 247.992188 32.960938 248.070312 32.886719 248.160156 32.828125 C 248.214844 32.738281 248.28125 32.65625 248.359375 32.585938 C 248.339844 32.488281 248.316406 32.390625 248.296875 32.292969 C 248.210938 32.3125 248.117188 32.324219 248.015625 32.324219 C 247.949219 32.324219 247.882812 32.320312 247.820312 32.308594 C 247.820312 32.328125 247.820312 32.34375 247.820312 32.363281 C 246.253906 33.691406 244.523438 34.789062 242.671875 35.710938 C 241.402344 36.347656 240.074219 36.851562 238.71875 37.277344 C 236.601562 37.933594 234.453125 38.476562 232.253906 38.820312 C 231.320312 38.964844 230.378906 39.039062 229.4375 39.128906 C 227.257812 39.347656 225.074219 39.292969 222.902344 39.050781 C 220.261719 38.75 217.671875 38.140625 215.164062 37.25 C 211.992188 36.125 208.96875 34.691406 206.089844 32.96875 L 206.621094 32.710938 C 207.039062 32.488281 207.460938 32.277344 207.871094 32.050781 C 209.824219 30.984375 211.675781 29.757812 213.351562 28.285156 C 214.726562 27.082031 215.96875 25.757812 217.015625 24.25 C 217.628906 23.363281 218.160156 22.425781 218.570312 21.417969 C 218.933594 20.535156 219.140625 19.621094 219.160156 18.660156 C 219.175781 17.726562 218.972656 16.84375 218.519531 16.03125 C 217.898438 14.917969 216.945312 14.167969 215.722656 13.867188 C 214.042969 13.457031 212.390625 13.574219 210.804688 14.34375 C 209.546875 14.953125 208.441406 15.753906 207.5625 16.859375 C 207.5 16.9375 207.433594 17.011719 207.363281 17.089844 C 207.273438 17.195312 207.175781 17.195312 207.144531 17.085938 C 207.066406 16.824219 206.996094 16.566406 206.910156 16.308594 C 206.421875 14.910156 205.550781 13.839844 204.230469 13.15625 C 203.8125 12.9375 203.378906 12.765625 202.929688 12.617188 C 201.402344 12.109375 199.941406 12.28125 198.550781 13.050781 C 197.132812 13.835938 196.191406 15.039062 195.664062 16.566406 C 195.15625 18.03125 195.074219 19.542969 195.363281 21.070312 C 195.761719 23.191406 196.617188 25.128906 197.867188 26.882812 C 198.53125 27.820312 199.285156 28.679688 200.101562 29.492188 C 201.25 30.640625 202.496094 31.660156 203.855469 32.550781 C 204.019531 32.660156 204.332031 32.886719 204.488281 33.011719 L 203.875 33.3125 C 202.1875 33.984375 200.453125 34.511719 198.679688 34.917969 C 194.722656 35.820312 190.710938 36.042969 186.667969 35.8125 C 183.949219 35.660156 181.253906 35.269531 178.5625 34.859375 C 177.703125 34.722656 176.84375 34.558594 175.988281 34.394531 C 175.0625 34.21875 174.144531 34.015625 173.222656 33.835938 C 172.300781 33.65625 171.371094 33.488281 170.449219 33.3125 C 169.691406 33.167969 168.929688 33.019531 168.175781 32.863281 C 167.21875 32.675781 166.265625 32.472656 165.3125 32.289062 C 164.285156 32.097656 163.261719 31.914062 162.238281 31.730469 C 160.980469 31.511719 159.726562 31.253906 158.460938 31.085938 C 156 30.757812 153.546875 30.339844 151.0625 30.132812 C 148.054688 29.84375 145.046875 29.523438 142.019531 29.5 C 140.675781 29.488281 139.335938 29.488281 137.988281 29.527344 C 136.074219 29.582031 134.175781 29.78125 132.28125 30.085938 C 130.457031 30.378906 128.652344 30.777344 126.90625 31.410156 C 125.511719 31.914062 124.183594 32.558594 122.96875 33.421875 C 121.769531 34.269531 120.777344 35.316406 119.988281 36.550781 C 119.351562 37.550781 118.828125 38.609375 118.445312 39.734375 C 118.257812 40.273438 118.109375 40.832031 117.960938 41.386719 C 117.855469 41.769531 117.957031 42.121094 118.214844 42.425781 C 118.507812 42.765625 119.042969 42.847656 119.402344 42.609375 C 119.761719 42.375 119.910156 41.949219 119.777344 41.546875 C 119.757812 41.480469 119.734375 41.414062 119.707031 41.355469 C 119.453125 40.84375 119.457031 40.3125 119.566406 39.769531 C 119.617188 39.507812 119.671875 39.238281 119.742188 38.980469 C 120.097656 37.617188 120.707031 36.394531 121.636719 35.328125 C 122.441406 34.402344 123.394531 33.664062 124.449219 33.050781 C 125.734375 32.296875 127.109375 31.765625 128.542969 31.375 C 131.734375 30.492188 134.980469 30.042969 138.289062 29.988281 C 139.09375 29.976562 139.902344 29.996094 140.707031 29.976562 C 142.320312 29.929688 143.929688 30.050781 145.542969 30.128906 C 149.273438 30.308594 152.960938 30.875 156.660156 31.347656 C 156.691406 31.351562 156.726562 31.355469 156.757812 31.359375 C 158.285156 31.605469 159.808594 31.847656 161.332031 32.101562 C 162.359375 32.273438 163.382812 32.46875 164.40625 32.660156 C 165.101562 32.789062 165.792969 32.929688 166.480469 33.070312 C 167.40625 33.253906 168.324219 33.449219 169.246094 33.628906 C 170.171875 33.8125 171.097656 33.976562 172.019531 34.15625 C 173.632812 34.472656 175.242188 34.824219 176.863281 35.105469 C 178.386719 35.371094 179.90625 35.660156 181.445312 35.816406 C 182.152344 35.886719 182.847656 35.996094 183.546875 36.082031 C 185.519531 36.339844 187.5 36.410156 189.480469 36.445312 C 191.160156 36.472656 192.832031 36.359375 194.503906 36.171875 C 196.945312 35.890625 199.34375 35.414062 201.691406 34.675781 C 202.730469 34.347656 204.179688 33.820312 205.203125 33.394531 C 206.484375 34.160156 207.792969 34.871094 209.136719 35.527344 C 211.792969 36.820312 214.519531 37.933594 217.378906 38.691406 C 218.679688 39.035156 219.988281 39.355469 221.316406 39.558594 C 223.152344 39.832031 225.003906 39.957031 227.023438 39.910156 C 228.359375 39.941406 229.84375 39.789062 231.320312 39.582031 C 234.242188 39.183594 237.09375 38.453125 239.875 37.445312 C 242.3125 36.554688 244.597656 35.363281 246.726562 33.867188 C 247.136719 33.578125 247.527344 33.265625 247.910156 32.953125 Z M 205.277344 32.453125 C 205.101562 32.359375 204.921875 32.261719 204.753906 32.152344 C 202.578125 30.761719 200.695312 29.046875 199.097656 27.007812 C 197.875 25.449219 197.007812 23.710938 196.496094 21.789062 C 196.222656 20.769531 196.09375 19.738281 196.207031 18.816406 C 196.277344 17.972656 196.378906 17.273438 196.652344 16.605469 C 197.046875 15.648438 197.621094 14.824219 198.441406 14.195312 C 199.636719 13.273438 200.976562 13.023438 202.4375 13.367188 C 203.132812 13.53125 203.773438 13.8125 204.371094 14.203125 C 205.464844 14.929688 206.152344 15.929688 206.410156 17.222656 C 206.527344 17.824219 206.542969 18.433594 206.273438 19.007812 C 206.144531 19.289062 206.054688 19.578125 206.066406 19.886719 C 206.074219 19.984375 206.117188 20.082031 206.160156 20.167969 C 206.207031 20.269531 206.429688 20.324219 206.511719 20.257812 C 206.5625 20.214844 206.625 20.179688 206.664062 20.128906 C 206.984375 19.695312 207.304688 19.265625 207.621094 18.824219 C 207.792969 18.578125 207.945312 18.316406 208.109375 18.058594 C 208.894531 16.835938 209.941406 15.910156 211.191406 15.203125 C 211.90625 14.796875 212.671875 14.570312 213.484375 14.503906 C 214.15625 14.453125 214.828125 14.46875 215.488281 14.625 C 216.792969 14.921875 217.726562 15.679688 218.199219 16.953125 C 218.589844 18.003906 218.609375 19.070312 218.320312 20.148438 C 218.128906 20.863281 217.851562 21.550781 217.507812 22.214844 C 216.867188 23.449219 216.078125 24.582031 215.164062 25.625 C 213.691406 27.308594 212.007812 28.757812 210.152344 29.996094 C 208.890625 30.839844 207.582031 31.59375 206.21875 32.265625 C 206.066406 32.335938 205.6875 32.515625 205.535156 32.578125 C 205.535156 32.578125 205.433594 32.546875 205.277344 32.453125 Z M 205.277344 32.453125 " fill-opacity="1" fill-rule="nonzero"/></g><g fill="#000000" fill-opacity="1"><g transform="translate(233.343665, 30.65663)"><g><path d="M 5.171875 -4.367188 C 5.910156 -3.46875 8.910156 -3.773438 10.5 -3.933594 C 6.855469 1.363281 4.574219 4.703125 7.113281 5.539062 C 8.960938 6.148438 15.382812 4.929688 19.476562 -3.757812 C 19.476562 -3.835938 19.25 -3.886719 19.203125 -3.789062 C 15.347656 3.980469 9.828125 5.699219 7.464844 5.265625 C 5.570312 4.914062 9.394531 -0.53125 11.847656 -4.140625 C 13.664062 -4.558594 16.25 -4.414062 16.570312 -3.773438 C 16.632812 -3.773438 16.8125 -3.773438 16.84375 -3.773438 C 16.539062 -4.65625 14.144531 -4.816406 12.011719 -4.414062 C 14.546875 -8.253906 17.050781 -12.894531 17.628906 -14.417969 C 15.15625 -13.421875 5.332031 -17.855469 4.992188 -10.421875 C 1.027344 -12.121094 -1.285156 -8.863281 0.371094 -6.164062 L 0.785156 -6.164062 C -0.980469 -8.398438 0.785156 -11.867188 4.960938 -10.195312 C 5.027344 -6.535156 6.421875 -4.992188 7.644531 -5.152344 C 8.796875 -5.316406 9.601562 -8.109375 5.25 -10.339844 C 5.476562 -16.777344 13.003906 -13.871094 16.488281 -14.015625 C 15.492188 -12.058594 13.503906 -8.476562 10.710938 -4.222656 C 8.765625 -3.917969 5.972656 -3.886719 5.667969 -4.367188 Z M 7.738281 -5.378906 C 6.824219 -5.171875 5.425781 -5.972656 5.203125 -10.066406 C 9.070312 -7.996094 8.476562 -5.554688 7.738281 -5.378906 Z M 7.738281 -5.378906 "/></g></g></g><g fill="#000000" fill-opacity="1"><g transform="translate(252.494781, 30.65663)"><g><path d="M 19.089844 3.4375 C 15.847656 4.640625 25.320312 -16.265625 19.074219 -14.898438 C 16.601562 -14.304688 14.722656 -10.261719 13.597656 -7.273438 C 14.304688 -12.011719 14.03125 -15.382812 10.917969 -15.09375 C 8.605469 -14.917969 6.308594 -12.636719 5.730469 -9.539062 C 2.152344 -11.945312 -0.722656 -9.167969 0.417969 -6.214844 L 0.820312 -6.132812 C -0.515625 -8.652344 1.863281 -11.738281 5.667969 -9.328125 C 5.042969 -5.714844 6.132812 -3.949219 7.371094 -3.871094 C 8.542969 -3.820312 9.90625 -6.40625 6.035156 -9.394531 C 6.488281 -12.234375 8.652344 -14.753906 10.933594 -14.898438 C 13.535156 -15.09375 13.535156 -12.75 12.910156 -8.976562 C 11.929688 -3.050781 8.652344 5.332031 5.136719 5.363281 C -0.371094 5.425781 -0.625 -3.324219 5.683594 -3.515625 C 5.941406 -3.164062 6.390625 -3.660156 5.796875 -3.773438 C -0.914062 -3.660156 -0.804688 5.621094 5.074219 5.621094 C 7.996094 5.621094 10.386719 2.585938 12.636719 -3.886719 C 15.703125 -4.285156 18.078125 -4.429688 18.851562 -4.574219 C 17.949219 -0.496094 16.683594 3.996094 18.996094 3.675781 C 20.617188 3.453125 23.84375 -1.15625 25.691406 -3.773438 C 25.691406 -3.851562 25.464844 -3.871094 25.417969 -3.789062 C 22.878906 -0.257812 20.648438 2.859375 19.089844 3.4375 Z M 18.882812 -14.609375 C 22.300781 -15.765625 19.574219 -8.605469 18.898438 -4.800781 C 17.324219 -4.542969 14.898438 -4.429688 12.714844 -4.140625 C 15.027344 -10.933594 16.9375 -13.953125 18.882812 -14.609375 Z M 7.515625 -4.078125 C 6.582031 -4.03125 5.410156 -5.074219 5.941406 -9.152344 C 9.375 -6.40625 8.269531 -4.125 7.515625 -4.078125 Z M 7.515625 -4.078125 "/></g></g></g><g fill="#000000" fill-opacity="1"><g transform="translate(176.430951, 41.417483)"><g><path d="M 2.6875 -0.390625 L 2.6875 0 L 0.203125 0 L 0.90625 -1.03125 C 1.457031 -1.863281 1.800781 -2.375 1.9375 -2.5625 L 0.703125 -2.5625 C 0.617188 -2.5625 0.539062 -2.582031 0.46875 -2.625 C 0.40625 -2.675781 0.375 -2.738281 0.375 -2.8125 L 0.375 -3.09375 L 0.75 -3.09375 L 0.75 -3.046875 C 0.75 -3.003906 0.753906 -2.976562 0.765625 -2.96875 C 0.785156 -2.957031 0.820312 -2.953125 0.875 -2.953125 L 2.640625 -2.953125 L 0.890625 -0.390625 Z M 2.6875 -0.390625 "/></g></g></g><g fill="#000000" fill-opacity="1"><g transform="translate(180.384226, 41.417483)"><g><path d="M 2.34375 -2.953125 L 2.34375 -2.5625 L 0.8125 -2.5625 L 0.8125 -1.671875 L 2.171875 -1.671875 L 2.171875 -1.296875 L 0.8125 -1.296875 L 0.8125 -0.390625 L 2.390625 -0.390625 L 2.390625 0 L 0.421875 0 L 0.421875 -2.953125 Z M 2.34375 -2.953125 "/></g></g></g><g fill="#000000" fill-opacity="1"><g transform="translate(184.092996, 41.417483)"><g><path d="M 0.8125 -2.953125 L 0.8125 0 L 0.421875 0 L 0.421875 -2.953125 Z M 0.8125 -2.953125 "/></g></g></g><g fill="#000000" fill-opacity="1"><g transform="translate(186.383637, 41.417483)"><g><path d="M 3 -2.953125 L 3 0.09375 L 2.984375 0.09375 L 0.8125 -2.09375 L 0.828125 0 L 0.421875 0 L 0.421875 -3.03125 L 0.4375 -3.03125 L 2.609375 -0.8125 L 2.59375 -2.953125 Z M 3 -2.953125 "/></g></g></g><g fill="#000000" fill-opacity="1"><g transform="translate(190.846299, 41.417483)"><g><path d="M 1.96875 -0.78125 L 0.84375 -0.78125 L 0.515625 0 L 0.125 0 L 1.421875 -3.078125 L 1.4375 -3.078125 L 2.734375 0 L 2.28125 0 Z M 1.828125 -1.125 L 1.421875 -2.1875 L 0.984375 -1.125 Z M 1.828125 -1.125 "/></g></g></g><g fill="#000000" fill-opacity="1"><g transform="translate(194.750676, 41.417483)"><g><path d="M 1.734375 -1.53125 C 1.898438 -1.46875 2.03125 -1.375 2.125 -1.25 C 2.226562 -1.125 2.28125 -0.984375 2.28125 -0.828125 C 2.28125 -0.640625 2.234375 -0.484375 2.140625 -0.359375 C 2.054688 -0.234375 1.9375 -0.140625 1.78125 -0.078125 C 1.632812 -0.0234375 1.472656 0 1.296875 0 L 0.421875 0 L 0.421875 -2.953125 L 1.1875 -2.953125 C 1.488281 -2.953125 1.722656 -2.890625 1.890625 -2.765625 C 2.054688 -2.640625 2.140625 -2.453125 2.140625 -2.203125 C 2.140625 -2.046875 2.101562 -1.910156 2.03125 -1.796875 C 1.957031 -1.679688 1.859375 -1.59375 1.734375 -1.53125 Z M 0.8125 -1.65625 L 1.265625 -1.65625 C 1.421875 -1.65625 1.535156 -1.695312 1.609375 -1.78125 C 1.691406 -1.875 1.734375 -1.988281 1.734375 -2.125 C 1.734375 -2.269531 1.6875 -2.378906 1.59375 -2.453125 C 1.5 -2.523438 1.367188 -2.5625 1.203125 -2.5625 L 0.8125 -2.5625 Z M 1.28125 -0.359375 C 1.457031 -0.359375 1.597656 -0.394531 1.703125 -0.46875 C 1.816406 -0.550781 1.875 -0.671875 1.875 -0.828125 C 1.875 -0.984375 1.8125 -1.097656 1.6875 -1.171875 C 1.570312 -1.242188 1.425781 -1.28125 1.25 -1.28125 L 0.8125 -1.28125 L 0.8125 -0.359375 Z M 1.28125 -0.359375 "/></g></g></g><g fill="#000000" fill-opacity="1"><g transform="translate(198.320893, 41.417483)"><g/></g></g><g fill="#000000" fill-opacity="1"><g transform="translate(200.656362, 41.417483)"><g><path d="M 1.96875 -0.78125 L 0.84375 -0.78125 L 0.515625 0 L 0.125 0 L 1.421875 -3.078125 L 1.4375 -3.078125 L 2.734375 0 L 2.28125 0 Z M 1.828125 -1.125 L 1.421875 -2.1875 L 0.984375 -1.125 Z M 1.828125 -1.125 "/></g></g></g><g fill="#000000" fill-opacity="1"><g transform="translate(204.560738, 41.417483)"><g><path d="M 1.734375 -1.53125 C 1.898438 -1.46875 2.03125 -1.375 2.125 -1.25 C 2.226562 -1.125 2.28125 -0.984375 2.28125 -0.828125 C 2.28125 -0.640625 2.234375 -0.484375 2.140625 -0.359375 C 2.054688 -0.234375 1.9375 -0.140625 1.78125 -0.078125 C 1.632812 -0.0234375 1.472656 0 1.296875 0 L 0.421875 0 L 0.421875 -2.953125 L 1.1875 -2.953125 C 1.488281 -2.953125 1.722656 -2.890625 1.890625 -2.765625 C 2.054688 -2.640625 2.140625 -2.453125 2.140625 -2.203125 C 2.140625 -2.046875 2.101562 -1.910156 2.03125 -1.796875 C 1.957031 -1.679688 1.859375 -1.59375 1.734375 -1.53125 Z M 0.8125 -1.65625 L 1.265625 -1.65625 C 1.421875 -1.65625 1.535156 -1.695312 1.609375 -1.78125 C 1.691406 -1.875 1.734375 -1.988281 1.734375 -2.125 C 1.734375 -2.269531 1.6875 -2.378906 1.59375 -2.453125 C 1.5 -2.523438 1.367188 -2.5625 1.203125 -2.5625 L 0.8125 -2.5625 Z M 1.28125 -0.359375 C 1.457031 -0.359375 1.597656 -0.394531 1.703125 -0.46875 C 1.816406 -0.550781 1.875 -0.671875 1.875 -0.828125 C 1.875 -0.984375 1.8125 -1.097656 1.6875 -1.171875 C 1.570312 -1.242188 1.425781 -1.28125 1.25 -1.28125 L 0.8125 -1.28125 L 0.8125 -0.359375 Z M 1.28125 -0.359375 "/></g></g></g><g fill="#000000" fill-opacity="1"><g transform="translate(208.130954, 41.417483)"><g><path d="M 0.78125 -1.046875 C 0.78125 -0.910156 0.8125 -0.789062 0.875 -0.6875 C 0.9375 -0.582031 1.019531 -0.5 1.125 -0.4375 C 1.238281 -0.375 1.359375 -0.34375 1.484375 -0.34375 C 1.617188 -0.34375 1.738281 -0.375 1.84375 -0.4375 C 1.957031 -0.5 2.046875 -0.582031 2.109375 -0.6875 C 2.171875 -0.789062 2.203125 -0.910156 2.203125 -1.046875 L 2.203125 -2.953125 L 2.59375 -2.953125 L 2.59375 -1.03125 C 2.59375 -0.820312 2.539062 -0.632812 2.4375 -0.46875 C 2.34375 -0.3125 2.210938 -0.1875 2.046875 -0.09375 C 1.878906 -0.0078125 1.691406 0.03125 1.484375 0.03125 C 1.285156 0.03125 1.097656 -0.0078125 0.921875 -0.09375 C 0.753906 -0.1875 0.625 -0.3125 0.53125 -0.46875 C 0.4375 -0.632812 0.390625 -0.820312 0.390625 -1.03125 L 0.390625 -2.953125 L 0.78125 -2.953125 Z M 0.78125 -1.046875 "/></g></g></g><g fill="#000000" fill-opacity="1"><g transform="translate(171.957298, 45.794985)"><g><path d="M 1.359375 -1.6875 C 1.273438 -1.71875 1.191406 -1.742188 1.109375 -1.765625 C 1.035156 -1.796875 0.957031 -1.8125 0.875 -1.8125 C 0.769531 -1.8125 0.679688 -1.785156 0.609375 -1.734375 C 0.546875 -1.679688 0.515625 -1.613281 0.515625 -1.53125 C 0.515625 -1.445312 0.550781 -1.378906 0.625 -1.328125 C 0.707031 -1.273438 0.820312 -1.222656 0.96875 -1.171875 C 1.070312 -1.128906 1.160156 -1.082031 1.234375 -1.03125 C 1.304688 -0.988281 1.363281 -0.925781 1.40625 -0.84375 C 1.457031 -0.769531 1.484375 -0.675781 1.484375 -0.5625 C 1.484375 -0.445312 1.453125 -0.34375 1.390625 -0.25 C 1.335938 -0.164062 1.257812 -0.0976562 1.15625 -0.046875 C 1.0625 -0.00390625 0.945312 0.015625 0.8125 0.015625 C 0.6875 0.015625 0.5625 0 0.4375 -0.03125 C 0.320312 -0.0703125 0.222656 -0.125 0.140625 -0.1875 L 0.265625 -0.40625 C 0.328125 -0.351562 0.40625 -0.304688 0.5 -0.265625 C 0.601562 -0.234375 0.695312 -0.21875 0.78125 -0.21875 C 0.894531 -0.21875 0.992188 -0.242188 1.078125 -0.296875 C 1.160156 -0.359375 1.203125 -0.445312 1.203125 -0.5625 C 1.203125 -0.65625 1.164062 -0.726562 1.09375 -0.78125 C 1.019531 -0.832031 0.921875 -0.882812 0.796875 -0.9375 C 0.679688 -0.976562 0.585938 -1.019531 0.515625 -1.0625 C 0.441406 -1.101562 0.375 -1.160156 0.3125 -1.234375 C 0.257812 -1.304688 0.234375 -1.398438 0.234375 -1.515625 C 0.234375 -1.671875 0.289062 -1.796875 0.40625 -1.890625 C 0.519531 -1.992188 0.664062 -2.050781 0.84375 -2.0625 C 1.0625 -2.0625 1.265625 -2.003906 1.453125 -1.890625 Z M 1.359375 -1.6875 "/></g></g></g><g fill="#000000" fill-opacity="1"><g transform="translate(174.33234, 45.794985)"><g><path d="M 0.171875 -1.015625 C 0.171875 -1.203125 0.21875 -1.375 0.3125 -1.53125 C 0.40625 -1.695312 0.53125 -1.828125 0.6875 -1.921875 C 0.84375 -2.015625 1.015625 -2.0625 1.203125 -2.0625 C 1.390625 -2.0625 1.5625 -2.015625 1.71875 -1.921875 C 1.882812 -1.828125 2.015625 -1.695312 2.109375 -1.53125 C 2.203125 -1.375 2.25 -1.203125 2.25 -1.015625 C 2.25 -0.828125 2.203125 -0.648438 2.109375 -0.484375 C 2.015625 -0.328125 1.882812 -0.203125 1.71875 -0.109375 C 1.5625 -0.0234375 1.390625 0.015625 1.203125 0.015625 C 1.015625 0.015625 0.84375 -0.0234375 0.6875 -0.109375 C 0.53125 -0.203125 0.40625 -0.328125 0.3125 -0.484375 C 0.21875 -0.648438 0.171875 -0.828125 0.171875 -1.015625 Z M 0.453125 -1.015625 C 0.453125 -0.878906 0.484375 -0.75 0.546875 -0.625 C 0.617188 -0.507812 0.710938 -0.414062 0.828125 -0.34375 C 0.941406 -0.28125 1.070312 -0.25 1.21875 -0.25 C 1.351562 -0.25 1.476562 -0.28125 1.59375 -0.34375 C 1.707031 -0.414062 1.796875 -0.507812 1.859375 -0.625 C 1.929688 -0.75 1.96875 -0.878906 1.96875 -1.015625 C 1.96875 -1.160156 1.929688 -1.289062 1.859375 -1.40625 C 1.796875 -1.53125 1.707031 -1.625 1.59375 -1.6875 C 1.476562 -1.757812 1.347656 -1.796875 1.203125 -1.796875 C 1.066406 -1.796875 0.941406 -1.757812 0.828125 -1.6875 C 0.710938 -1.625 0.617188 -1.53125 0.546875 -1.40625 C 0.484375 -1.289062 0.453125 -1.160156 0.453125 -1.015625 Z M 0.453125 -1.015625 "/></g></g></g><g fill="#000000" fill-opacity="1"><g transform="translate(177.485852, 45.794985)"><g><path d="M 1.5 -2.046875 L 1.5 -1.78125 L 0.5625 -1.78125 L 0.5625 -1.125 L 1.390625 -1.125 L 1.390625 -0.875 L 0.5625 -0.875 L 0.5625 0 L 0.296875 0 L 0.296875 -2.046875 Z M 1.5 -2.046875 "/></g></g></g><g fill="#000000" fill-opacity="1"><g transform="translate(179.88071, 45.794985)"><g><path d="M 1.5 -2.046875 L 1.5 -1.78125 L 0.953125 -1.78125 L 0.953125 0 L 0.671875 0 L 0.671875 -1.78125 L 0.140625 -1.78125 L 0.140625 -2.046875 Z M 1.5 -2.046875 "/></g></g></g><g fill="#000000" fill-opacity="1"><g transform="translate(182.255752, 45.794985)"><g><path d="M 1.9375 0.09375 L 1.453125 -1.125 L 0.9375 0.09375 L 0.109375 -2.03125 L 0.4375 -2.03125 L 0.96875 -0.546875 L 1.3125 -1.46875 L 1.09375 -2.03125 L 1.375 -2.03125 L 1.9375 -0.578125 L 2.4375 -2.03125 L 2.734375 -2.03125 Z M 1.9375 0.09375 "/></g></g></g><g fill="#000000" fill-opacity="1"><g transform="translate(185.836715, 45.794985)"><g><path d="M 1.359375 -0.53125 L 0.578125 -0.53125 L 0.359375 0 L 0.09375 0 L 0.984375 -2.125 L 1 -2.125 L 1.890625 0 L 1.578125 0 Z M 1.265625 -0.78125 L 0.984375 -1.515625 L 0.671875 -0.78125 Z M 1.265625 -0.78125 "/></g></g></g><g fill="#000000" fill-opacity="1"><g transform="translate(188.548623, 45.794985)"><g><path d="M 1.421875 0 L 0.9375 -0.75 C 0.925781 -0.75 0.90625 -0.75 0.875 -0.75 L 0.5625 -0.75 L 0.5625 0 L 0.296875 0 L 0.296875 -2.046875 L 0.84375 -2.046875 C 0.976562 -2.046875 1.097656 -2.019531 1.203125 -1.96875 C 1.316406 -1.914062 1.40625 -1.84375 1.46875 -1.75 C 1.53125 -1.65625 1.5625 -1.539062 1.5625 -1.40625 C 1.5625 -1.28125 1.53125 -1.164062 1.46875 -1.0625 C 1.414062 -0.957031 1.332031 -0.878906 1.21875 -0.828125 L 1.734375 0 Z M 0.859375 -1.015625 C 1.015625 -1.015625 1.125 -1.050781 1.1875 -1.125 C 1.25 -1.207031 1.28125 -1.300781 1.28125 -1.40625 C 1.28125 -1.457031 1.265625 -1.515625 1.234375 -1.578125 C 1.210938 -1.640625 1.171875 -1.6875 1.109375 -1.71875 C 1.046875 -1.757812 0.972656 -1.78125 0.890625 -1.78125 L 0.5625 -1.78125 L 0.5625 -1.015625 Z M 0.859375 -1.015625 "/></g></g></g><g fill="#000000" fill-opacity="1"><g transform="translate(191.144467, 45.794985)"><g><path d="M 1.625 -2.046875 L 1.625 -1.78125 L 0.5625 -1.78125 L 0.5625 -1.15625 L 1.515625 -1.15625 L 1.515625 -0.890625 L 0.5625 -0.890625 L 0.5625 -0.265625 L 1.65625 -0.265625 L 1.65625 0 L 0.296875 0 L 0.296875 -2.046875 Z M 1.625 -2.046875 "/></g></g></g><g fill="#000000" fill-opacity="1"><g transform="translate(193.720496, 45.794985)"><g/></g></g><g fill="#000000" fill-opacity="1"><g transform="translate(195.342541, 45.794985)"><g><path d="M 1.625 -2.046875 L 1.625 -1.78125 L 0.5625 -1.78125 L 0.5625 -1.15625 L 1.515625 -1.15625 L 1.515625 -0.890625 L 0.5625 -0.890625 L 0.5625 -0.265625 L 1.65625 -0.265625 L 1.65625 0 L 0.296875 0 L 0.296875 -2.046875 Z M 1.625 -2.046875 "/></g></g></g><g fill="#000000" fill-opacity="1"><g transform="translate(197.91857, 45.794985)"><g><path d="M 2.078125 -2.046875 L 2.078125 0.0625 L 2.0625 0.0625 L 0.5625 -1.453125 L 0.578125 0 L 0.296875 0 L 0.296875 -2.109375 L 0.3125 -2.109375 L 1.8125 -0.5625 L 1.796875 -2.046875 Z M 2.078125 -2.046875 "/></g></g></g><g fill="#000000" fill-opacity="1"><g transform="translate(201.018298, 45.794985)"><g><path d="M 1.890625 -0.171875 C 1.828125 -0.128906 1.726562 -0.0859375 1.59375 -0.046875 C 1.46875 -0.00390625 1.347656 0.015625 1.234375 0.015625 C 1.023438 0.015625 0.835938 -0.0234375 0.671875 -0.109375 C 0.515625 -0.191406 0.390625 -0.3125 0.296875 -0.46875 C 0.210938 -0.625 0.171875 -0.796875 0.171875 -0.984375 C 0.171875 -1.203125 0.21875 -1.394531 0.3125 -1.5625 C 0.40625 -1.726562 0.53125 -1.851562 0.6875 -1.9375 C 0.851562 -2.019531 1.03125 -2.0625 1.21875 -2.0625 C 1.332031 -2.0625 1.4375 -2.046875 1.53125 -2.015625 C 1.632812 -1.992188 1.726562 -1.960938 1.8125 -1.921875 L 1.71875 -1.671875 C 1.664062 -1.703125 1.59375 -1.726562 1.5 -1.75 C 1.40625 -1.78125 1.320312 -1.796875 1.25 -1.796875 C 1.09375 -1.796875 0.953125 -1.757812 0.828125 -1.6875 C 0.703125 -1.625 0.609375 -1.535156 0.546875 -1.421875 C 0.484375 -1.304688 0.453125 -1.164062 0.453125 -1 C 0.453125 -0.851562 0.484375 -0.722656 0.546875 -0.609375 C 0.609375 -0.492188 0.703125 -0.40625 0.828125 -0.34375 C 0.953125 -0.28125 1.085938 -0.25 1.234375 -0.25 C 1.304688 -0.25 1.375 -0.253906 1.4375 -0.265625 C 1.507812 -0.285156 1.570312 -0.304688 1.625 -0.328125 L 1.625 -0.734375 L 1.21875 -0.734375 L 1.21875 -1 L 1.890625 -1 Z M 1.890625 -0.171875 "/></g></g></g><g fill="#000000" fill-opacity="1"><g transform="translate(203.874576, 45.794985)"><g><path d="M 0.5625 -2.046875 L 0.5625 0 L 0.296875 0 L 0.296875 -2.046875 Z M 0.5625 -2.046875 "/></g></g></g><g fill="#000000" fill-opacity="1"><g transform="translate(205.465482, 45.794985)"><g><path d="M 2.078125 -2.046875 L 2.078125 0.0625 L 2.0625 0.0625 L 0.5625 -1.453125 L 0.578125 0 L 0.296875 0 L 0.296875 -2.109375 L 0.3125 -2.109375 L 1.8125 -0.5625 L 1.796875 -2.046875 Z M 2.078125 -2.046875 "/></g></g></g><g fill="#000000" fill-opacity="1"><g transform="translate(208.56521, 45.794985)"><g><path d="M 1.625 -2.046875 L 1.625 -1.78125 L 0.5625 -1.78125 L 0.5625 -1.15625 L 1.515625 -1.15625 L 1.515625 -0.890625 L 0.5625 -0.890625 L 0.5625 -0.265625 L 1.65625 -0.265625 L 1.65625 0 L 0.296875 0 L 0.296875 -2.046875 Z M 1.625 -2.046875 "/></g></g></g><g fill="#000000" fill-opacity="1"><g transform="translate(211.141239, 45.794985)"><g><path d="M 1.625 -2.046875 L 1.625 -1.78125 L 0.5625 -1.78125 L 0.5625 -1.15625 L 1.515625 -1.15625 L 1.515625 -0.890625 L 0.5625 -0.890625 L 0.5625 -0.265625 L 1.65625 -0.265625 L 1.65625 0 L 0.296875 0 L 0.296875 -2.046875 Z M 1.625 -2.046875 "/></g></g></g><g fill="#000000" fill-opacity="1"><g transform="translate(213.717268, 45.794985)"><g><path d="M 1.421875 0 L 0.9375 -0.75 C 0.925781 -0.75 0.90625 -0.75 0.875 -0.75 L 0.5625 -0.75 L 0.5625 0 L 0.296875 0 L 0.296875 -2.046875 L 0.84375 -2.046875 C 0.976562 -2.046875 1.097656 -2.019531 1.203125 -1.96875 C 1.316406 -1.914062 1.40625 -1.84375 1.46875 -1.75 C 1.53125 -1.65625 1.5625 -1.539062 1.5625 -1.40625 C 1.5625 -1.28125 1.53125 -1.164062 1.46875 -1.0625 C 1.414062 -0.957031 1.332031 -0.878906 1.21875 -0.828125 L 1.734375 0 Z M 0.859375 -1.015625 C 1.015625 -1.015625 1.125 -1.050781 1.1875 -1.125 C 1.25 -1.207031 1.28125 -1.300781 1.28125 -1.40625 C 1.28125 -1.457031 1.265625 -1.515625 1.234375 -1.578125 C 1.210938 -1.640625 1.171875 -1.6875 1.109375 -1.71875 C 1.046875 -1.757812 0.972656 -1.78125 0.890625 -1.78125 L 0.5625 -1.78125 L 0.5625 -1.015625 Z M 0.859375 -1.015625 "/></g></g></g></svg>